<svg width="32" height="32" viewBox="0 0 32 32" fill="none" xmlns="http://www.w3.org/2000/svg">
<path d="M16 32C24.9204 32 32 24.7788 32 16C32 7.07965 24.7788 0 16 0C7.07964 0 0 7.22124 0 16C0 24.7788 7.22124 32 16 32Z" fill="#2C374B"/>
<path d="M18.4578 15.0727L20.0343 12.3912L24.2832 19.0257L24.2852 20.2989L24.2713 11.5375C24.2613 11.3233 24.1478 11.1274 23.9669 11.0118L16.3171 6.60058C16.1382 6.51243 15.9113 6.51337 15.7327 6.60332C15.7086 6.61548 15.6859 6.62863 15.6642 6.64299L15.6376 6.65982L8.21228 10.9735L8.18343 10.9866C8.1464 11.0037 8.10896 11.0254 8.07379 11.0506C7.93303 11.1519 7.83951 11.3015 7.80926 11.4694C7.80473 11.4949 7.8014 11.5208 7.7998 11.5469L7.81146 18.6866L11.7692 12.537C12.2674 11.7215 13.3531 11.4589 14.3609 11.4732L15.5438 11.5045L8.57439 22.7094L9.39593 23.1836L16.4488 11.5158L19.5662 11.5045L12.5315 23.4667L15.463 25.157L15.8133 25.359C15.9614 25.4193 16.1361 25.4223 16.2855 25.3683L24.0427 20.8616L22.5596 21.7232L18.4578 15.0727ZM19.0593 23.7568L16.0984 19.098L17.9058 16.0233L21.7944 22.1677L19.0593 23.7568Z" fill="#2D374B"/>
<path d="M16.0978 19.0981L19.0587 23.7569L21.7938 22.1678L17.9053 16.0234L16.0978 19.0981Z" fill="#28A0F0"/>
<path d="M24.2852 20.2988L24.2832 19.0256L20.0343 12.3911L18.4579 15.0726L22.5597 21.7231L24.0428 20.8616C24.1883 20.7432 24.2762 20.5693 24.2855 20.3817L24.2852 20.2988Z" fill="#28A0F0"/>
<path d="M6.48005 21.4996L8.57438 22.7094L15.5438 11.5045L14.3609 11.4732C13.3531 11.4589 12.2675 11.7216 11.7692 12.537L7.81145 18.6866L6.47998 20.7375V21.4996H6.48005Z" fill="#FAFAFA"/>
<path d="M19.5662 11.5044L16.4489 11.5157L9.396 23.1835L11.8612 24.6065L12.5316 23.4666L19.5662 11.5044Z" fill="#FAFAFA"/>
<path d="M25.5989 11.4884C25.5728 10.8348 25.2198 10.2364 24.6669 9.88809L16.9169 5.42014C16.37 5.14401 15.6866 5.14367 15.1388 5.41994C15.0741 5.45267 7.60209 9.79701 7.60209 9.79701C7.4987 9.84669 7.39911 9.90592 7.30539 9.97311C6.81178 10.3278 6.51089 10.8788 6.47998 11.4843V20.7375L7.81145 18.6866L7.79979 11.5469C7.80139 11.5208 7.80466 11.4952 7.80925 11.4698C7.8393 11.3018 7.93289 11.1519 8.07378 11.0507C8.10895 11.0254 15.7085 6.61552 15.7327 6.60336C15.9113 6.51341 16.1383 6.51247 16.3171 6.60062L23.9668 11.0119C24.1478 11.1274 24.2613 11.3233 24.2713 11.5375V20.3818C24.2621 20.5694 24.1881 20.7432 24.0426 20.8617L22.5596 21.7232L21.7944 22.1678L19.0592 23.7568L16.2854 25.3683C16.136 25.4224 15.9614 25.4194 15.8132 25.359L12.5314 23.4667L11.861 24.6065L14.8103 26.3088C14.9078 26.3644 14.9947 26.4137 15.066 26.4539C15.1764 26.516 15.2517 26.5574 15.2782 26.5703C15.4879 26.6724 15.7894 26.7318 16.0612 26.7318C16.3104 26.7318 16.5534 26.6859 16.7833 26.5956L24.8399 21.9181C25.3023 21.559 25.5744 21.0173 25.5989 20.4305V11.4884Z" fill="#96BEDC"/>
</svg>
