<svg
        xmlns="http://www.w3.org/2000/svg"
        width="24"
        height="24"
        viewBox="0 0 44 44"
        fill="none"
>
    <g clip-path="url(#clip0_3922_27242)">
        <rect width="44" height="44" rx="22" fill="black"/>
        <path
                d="M17.8123 12.64H15.307C15.1339 12.64 14.9795 12.7482 14.9202 12.9107L8.3349 30.9636C8.28593 31.0979 8.38537 31.24 8.5283 31.24H11.0336C11.2067 31.24 11.3611 31.1318 11.4204 30.9695L18.0057 12.9164C18.0547 12.7821 17.9552 12.64 17.8123 12.64ZM20.8595 20.2043C20.7938 20.0239 20.5387 20.0239 20.4727 20.2043L19.1739 23.7654C19.1407 23.8565 19.1407 23.9565 19.1739 24.0476L21.6988 30.9693C21.758 31.1318 21.9126 31.2399 22.0856 31.2399H24.591C24.7339 31.2399 24.8333 31.0978 24.7844 30.9634L20.8595 20.2043ZM27.2463 23.6899C27.3121 23.8703 27.5672 23.8703 27.633 23.6899L31.5629 12.9164C31.6118 12.7821 31.5124 12.64 31.3695 12.64H28.8641C28.6911 12.64 28.5367 12.7481 28.4773 12.9107L25.9474 19.8465C25.9141 19.9376 25.9141 20.0374 25.9474 20.1285L27.2463 23.6899ZM22.3065 12.9088C22.2478 12.7474 22.0944 12.64 21.9227 12.64H19.4089C19.236 12.64 19.0816 12.7481 19.0222 12.9105L12.4371 30.9636C12.3881 31.0979 12.4876 31.24 12.6305 31.24H15.136C15.309 31.24 15.4634 31.1319 15.5228 30.9695L20.5647 17.1471C20.5978 17.0564 20.7259 17.0564 20.7589 17.1471L25.8009 30.9695C25.8601 31.1319 26.0147 31.24 26.1877 31.24H28.6932C28.8361 31.24 28.9355 31.0979 28.8866 30.9637L22.3065 12.9088ZM35.4717 12.64H32.9661C32.7932 12.64 32.6386 12.7481 32.5794 12.9105L27.9983 25.4694C27.9651 25.5605 27.9651 25.6603 27.9983 25.7514L29.2974 29.3128C29.3632 29.4932 29.6183 29.4932 29.6841 29.3128L34.2189 16.8808L35.6651 12.9163C35.7141 12.7821 35.6146 12.64 35.4717 12.64Z"
                fill="#EF8220"
        />
    </g>
    <defs>
        <clipPath id="clip0_3922_27242">
            <rect width="44" height="44" fill="white"/>
        </clipPath>
    </defs>
</svg>