<svg xmlns="http://www.w3.org/2000/svg" xml:space="preserve" style="enable-background:new 0 0 2000 1359.88"
     viewBox="0 0 2000 1359.88"><path d="M693.83 0H510.66c-12.65 0-23.94 7.91-28.28 19.79L.92 1339.67c-3.58 9.82 3.69 20.21 14.14 20.21h183.17c12.65 0 23.94-7.91 28.28-19.78L707.97 20.21C711.55 10.39 704.28 0 693.83 0zm222.79 553.04c-4.81-13.19-23.46-13.19-28.28 0L793.38 813.4a30.102 30.102 0 0 0 0 20.63l184.6 506.06c4.33 11.88 15.63 19.78 28.28 19.78h183.17c10.45 0 17.72-10.39 14.14-20.21L916.62 553.04zm466.95 254.84c4.81 13.19 23.46 13.19 28.27 0l287.32-787.67c3.58-9.82-3.69-20.21-14.14-20.21h-183.17c-12.65 0-23.94 7.9-28.28 19.79L1288.6 526.88a30.073 30.073 0 0 0 0 20.62l94.97 260.38zM1022.41 19.65A29.858 29.858 0 0 0 994.35 0H810.56c-12.64 0-23.93 7.9-28.27 19.78L300.84 1339.67c-3.58 9.82 3.69 20.21 14.14 20.21h183.18c12.65 0 23.94-7.9 28.28-19.78L895.06 329.52c2.42-6.63 11.79-6.63 14.2 0l368.63 1010.58c4.33 11.88 15.63 19.78 28.28 19.78h183.18c10.45 0 17.72-10.39 14.14-20.2L1022.41 19.65zM1984.94 0h-183.19c-12.64 0-23.94 7.9-28.27 19.78l-334.93 918.2a30.073 30.073 0 0 0 0 20.62l94.98 260.38c4.81 13.19 23.46 13.19 28.27 0l331.55-908.93L1999.08 20.2c3.58-9.81-3.69-20.2-14.14-20.2z" style="fill:#ef8220"/></svg>