<svg xmlns="http://www.w3.org/2000/svg" fill="none" viewBox="0 0 650.281 649.502">
    <path fill="#fff" d="M117.962 92.9h413.206v405.051H117.962z"/>
    <path fill="#E84142" fill-rule="evenodd"
          d="M647.43 323.744c0 178.664-144.836 323.5-323.5 323.5S.43 502.408.43 323.744 145.266.244 323.93.244s323.5 144.836 323.5 323.5Zm-415.17 128.73h-62.782c-13.192 0-19.709 0-23.683-2.543-4.291-2.782-6.914-7.391-7.232-12.477-.238-4.689 3.02-10.411 9.537-21.855L303.117 142.36c6.596-11.603 9.934-17.404 14.146-19.55a15.998 15.998 0 0 1 14.464 0c4.212 2.146 7.55 7.947 14.146 19.55l31.868 55.63.163.284c7.124 12.448 10.737 18.76 12.314 25.385a47.194 47.194 0 0 1 0 22.093c-1.589 6.676-5.166 13.034-12.398 25.67l-81.426 143.939-.211.369c-7.172 12.55-10.806 18.91-15.843 23.711a47.363 47.363 0 0 1-19.311 11.205c-6.596 1.828-13.987 1.828-28.769 1.828Zm158.546.007h89.962c13.272 0 19.947 0 23.921-2.622 4.291-2.782 6.993-7.471 7.232-12.557.23-4.534-2.958-10.035-9.205-20.813l-.65-1.121-45.06-77.087-.513-.867c-6.332-10.709-9.53-16.116-13.633-18.206a15.825 15.825 0 0 0-14.384 0c-4.133 2.145-7.471 7.788-14.067 19.152l-44.901 77.087-.154.266c-6.573 11.346-9.858 17.016-9.621 21.669.318 5.086 2.94 9.775 7.232 12.556 3.894 2.543 10.569 2.543 23.841 2.543Z"
          clip-rule="evenodd"/>
</svg>