<svg xmlns="http://www.w3.org/2000/svg" fill="none" viewBox="0 0 272 272"><path fill="#fff" d="M240.584 37.291c10.398 10.144 20.814 20.323 31.086 30.358-22.717 22.557-45.237 44.916-67.29 66.824l67.452 68.932c-10.506 10.684-20.868 21.241-32.074 32.628-4.49-4.865-8.782-9.765-13.379-14.395-22.646-22.828-45.345-45.583-68.081-68.338-4.579-4.594-7.363-9.927-7.596-16.485-.234-6.882 2.622-12.467 7.363-17.224 26.309-26.394 52.636-52.788 78.963-79.165.988-.99 2.119-1.873 3.556-3.135ZM203.242 0c10.542 10.432 20.976 20.755 31.553 31.223-.718.829-1.31 1.585-1.993 2.252-26.471 26.538-52.96 53.077-79.43 79.633-6.322 6.342-13.685 10.018-22.646 7.585-3.807-1.027-7.794-3.152-10.578-5.909-27.243-27.007-54.252-54.248-81.316-81.435-.592-.595-1.077-1.315-1.706-2.09C47.596 20.899 57.94 10.648 68.572.126c1.903 1.802 3.986 3.694 5.962 5.693 19.305 19.386 38.575 38.808 57.88 58.176 3.34 3.351 3.412 3.261 6.842-.162 20.778-20.845 41.538-41.672 62.334-62.5.521-.522 1.15-.937 1.634-1.315l.018-.018ZM30.77 235.584C20.588 224.918 10.495 214.36.133 203.496c22.143-21.89 44.717-44.231 67.2-66.463-4.669-4.883-8.476-9.026-12.462-13.008-17.42-17.404-34.894-34.772-52.35-52.158-3.322-3.297-3.34-3.351-.18-6.558a6536.68 6536.68 0 0 1 24.873-25.08c1.132-1.135 2.407-2.126 3.664-3.224 6.968 6.954 13.756 13.71 20.544 20.484a95806.634 95806.634 0 0 1 59.677 59.599c1.849 1.838 3.645 3.766 5.243 5.838 6.178 8.035 6.358 17.89.36 26.07-1.724 2.36-3.79 4.504-5.855 6.594a81392.018 81392.018 0 0 1-78.676 79.003c-.215.216-.52.36-1.4.955v.036ZM36.44 240.795c27.207-27.043 53.912-53.654 80.706-80.156 2.675-2.648 5.585-5.351 8.889-7.063 8.62-4.504 17.797-3.062 24.944 3.82 11.207 10.81 22.197 21.872 33.26 32.844 16.773 16.666 33.51 33.349 50.553 50.321-1.437 1.639-2.568 3.045-3.825 4.324-8.513 8.594-17.133 17.08-25.555 25.764-1.922 1.981-2.999 1.639-4.705-.091-20.904-21.169-41.844-42.303-62.783-63.436-.593-.595-1.258-1.135-1.994-1.802-8.943 8.792-17.851 17.422-26.632 26.178-13.11 13.099-26.094 26.305-39.204 39.385-.592.594-2.442.937-2.855.522-10.254-10.053-20.383-20.232-30.817-30.664l.018.054Z"/></svg>
