<svg viewBox="0 0 130 130" fill="none" xmlns="http://www.w3.org/2000/svg">
<path d="M62.4509 119C90.8666 119 113.902 95.9428 113.902 67.5C113.902 39.0573 90.8666 16 62.4509 16C34.0353 16 11 39.0573 11 67.5C11 95.9428 34.0353 119 62.4509 119Z" fill="#F25D00"/>
<path d="M43.1206 56.7668V72.4691C43.1206 73.0095 43.5584 73.4476 44.0983 73.4476H59.7856C60.3256 73.4476 60.7632 73.0095 60.7632 72.4691V56.7668C60.7632 56.2263 60.3256 55.7883 59.7856 55.7883H44.0983C43.5584 55.7883 43.1206 56.2263 43.1206 56.7668Z" fill="white"/>
<path d="M43.1255 78.8342V94.5365C43.1255 95.077 43.563 95.515 44.103 95.515H59.7903C60.3303 95.515 60.7679 95.077 60.7679 94.5365V78.8342C60.7679 78.2938 60.3303 77.8557 59.7903 77.8557H44.103C43.563 77.8557 43.1255 78.2938 43.1255 78.8342Z" fill="white"/>
<path d="M65.1726 78.8358V94.5382C65.1726 95.0786 65.6103 95.5167 66.1502 95.5167H81.8376C82.3775 95.5167 82.8151 95.0786 82.8151 94.5382V78.8358C82.8151 78.2954 82.3775 77.8573 81.8376 77.8573H66.1502C65.6103 77.8573 65.1726 78.2954 65.1726 78.8358Z" fill="white"/>
<path d="M65.1726 56.7619V72.4643C65.1726 73.0047 65.6103 73.4428 66.1502 73.4428H81.8376C82.3775 73.4428 82.8151 73.0047 82.8151 72.4643V56.7619C82.8151 56.2215 82.3775 55.7834 81.8376 55.7834H66.1502C65.6103 55.7834 65.1726 56.2215 65.1726 56.7619Z" fill="white"/>
<path d="M59.7856 33.716H44.0983C43.5584 33.716 43.1206 34.1541 43.1206 34.6945V50.3969C43.1206 50.9373 43.5584 51.3754 44.0983 51.3754H59.7856C60.3256 51.3754 60.7632 50.9373 60.7632 50.3969V34.6945C60.7632 34.1541 60.3256 33.716 59.7856 33.716Z" fill="white"/>
</svg>
