<svg width="32" height="32" viewBox="0 0 32 32" fill="none" xmlns="http://www.w3.org/2000/svg">
<path d="M16 32C24.9204 32 32 24.7788 32 16C32 7.07965 24.7788 0 16 0C7.07964 0 0 7.22124 0 16C0 24.7788 7.22124 32 16 32Z" fill="#1E1E1E"/>
<path d="M12.0937 14.3951L15.9999 10.489L19.9082 14.3971L22.1811 12.1242L15.9999 5.94287L9.8208 12.1222L12.0937 14.3951Z" fill="#F3BA2F"/>
<path d="M10.4887 15.9999L8.21582 13.7271L5.94284 16L8.21571 18.2729L10.4887 15.9999Z" fill="#F3BA2F"/>
<path d="M12.0937 17.6049L16 21.511L19.9081 17.603L22.1823 19.8747L22.1812 19.8759L16 26.0571L9.82068 19.878L9.8175 19.8748L12.0937 17.6049Z" fill="#F3BA2F"/>
<path d="M23.7844 18.2735L26.0574 16.0005L23.7845 13.7276L21.5115 16.0006L23.7844 18.2735Z" fill="#F3BA2F"/>
<path d="M18.3054 15.9988H18.3064L15.9999 13.6924L14.2954 15.3969H14.2953L14.0996 15.5927L13.6956 15.9967L13.6924 15.9999L13.6956 16.0033L15.9999 18.3076L18.3064 16.0012L18.3075 15.9999L18.3054 15.9988Z" fill="#F3BA2F"/>
</svg>
