<svg width="35" height="40" viewBox="0 0 35 40" fill="none" xmlns="http://www.w3.org/2000/svg">
<g id="Layer_1" clip-path="url(#clip0_499_1782)">
<g id="Group">
<path id="Vector" d="M0.310059 10.1002V29.5761L17.175 39.3125L34.043 29.5761V10.1002L17.175 0.360718L0.310059 10.1002Z" fill="url(#paint0_linear_499_1782)"/>
<path id="Vector_2" d="M25.2716 14.7359L8.97339 24.6069V34.578L17.1726 39.3116V29.4844L34.0407 19.8357V10.0993L25.2716 5.03705V14.7359Z" fill="#002D74"/>
<path id="Vector_3" d="M9.07906 24.9396L25.3773 15.0686V5.09742L17.175 0.360718V10.1879L0.310059 19.8366V29.5761L9.07906 34.6384V24.9396Z" fill="#002D74"/>
<path id="Vector_4" d="M25.5113 5.17256L17.1775 0.360718V10.1879L25.5113 15.031" fill="url(#paint1_linear_499_1782)"/>
<path id="Vector_5" d="M17.1742 29.4848L8.84349 24.7011L8.82471 34.4907L17.1742 39.3119" fill="url(#paint2_linear_499_1782)"/>
<path id="Vector_6" d="M25.5054 24.7022L17.1778 29.5359L8.84399 24.7022V15.0316L17.1778 10.1884L25.5054 15.0316L22.0335 17.0446L17.1778 14.2238L12.3159 17.0446V22.6892L17.1778 25.5099L22.0335 22.6892L25.5054 24.7022Z" fill="white"/>
</g>
<path id="Vector_7" d="M0.314453 10.1003V29.5762L17.1794 39.3126L34.0474 29.5762V10.1003L17.1794 0.360779L0.314453 10.1003Z" stroke="url(#paint3_linear_499_1782)" stroke-width="0.669105" stroke-miterlimit="10"/>
</g>
<defs>
<linearGradient id="paint0_linear_499_1782" x1="0.310059" y1="19.8366" x2="34.043" y2="19.8366" gradientUnits="userSpaceOnUse">
<stop stop-color="#14DCFF"/>
<stop offset="0.02" stop-color="#11C9F0"/>
<stop offset="0.07" stop-color="#0DA0CF"/>
<stop offset="0.13" stop-color="#097CB3"/>
<stop offset="0.19" stop-color="#055F9C"/>
<stop offset="0.25" stop-color="#03498A"/>
<stop offset="0.32" stop-color="#01397D"/>
<stop offset="0.4" stop-color="#002F76"/>
<stop offset="0.5" stop-color="#002D74"/>
<stop offset="0.56" stop-color="#003479"/>
<stop offset="0.64" stop-color="#034889"/>
<stop offset="0.74" stop-color="#0668A3"/>
<stop offset="0.85" stop-color="#0C96C7"/>
<stop offset="0.97" stop-color="#12D0F5"/>
<stop offset="0.99" stop-color="#14DCFF"/>
</linearGradient>
<linearGradient id="paint1_linear_499_1782" x1="19.8667" y1="12.8396" x2="24.3499" y2="-2.75743" gradientUnits="userSpaceOnUse">
<stop stop-color="#E344FF"/>
<stop offset="0.04" stop-color="#CD41F1"/>
<stop offset="0.13" stop-color="#9D3CD4"/>
<stop offset="0.23" stop-color="#7338BA"/>
<stop offset="0.33" stop-color="#4F35A4"/>
<stop offset="0.44" stop-color="#323293"/>
<stop offset="0.55" stop-color="#1C2F85"/>
<stop offset="0.67" stop-color="#0C2E7B"/>
<stop offset="0.81" stop-color="#022D75"/>
<stop offset="1" stop-color="#002D74"/>
</linearGradient>
<linearGradient id="paint2_linear_499_1782" x1="10.3274" y1="36.391" x2="15.6558" y2="27.6815" gradientUnits="userSpaceOnUse">
<stop stop-color="#002D74"/>
<stop offset="0.2" stop-color="#002F73"/>
<stop offset="0.34" stop-color="#033973"/>
<stop offset="0.46" stop-color="#084973"/>
<stop offset="0.58" stop-color="#0E5F73"/>
<stop offset="0.69" stop-color="#177C72"/>
<stop offset="0.8" stop-color="#22A071"/>
<stop offset="0.9" stop-color="#2ECA70"/>
<stop offset="0.99" stop-color="#3CFA70"/>
<stop offset="1" stop-color="#3EFF70"/>
</linearGradient>
<linearGradient id="paint3_linear_499_1782" x1="17.1794" y1="39.6757" x2="17.1794" y2="0.000752715" gradientUnits="userSpaceOnUse">
<stop stop-color="#14DCFF"/>
<stop offset="0.5" stop-color="#3EFF70"/>
<stop offset="1" stop-color="#14DCFF"/>
</linearGradient>
<clipPath id="clip0_499_1782">
<rect width="34.3591" height="39.675" fill="white"/>
</clipPath>
</defs>
</svg>
