<svg
        xmlns="http://www.w3.org/2000/svg"
        width="24"
        height="24"
        viewBox="0 0 44 44"
        fill="none"
>
    <g clip-path="url(#clip0_4732_26036)">
        <rect width="44" height="44" rx="22" fill="#1969FF"/>
        <path
                d="M20.7162 7.47543C21.1124 7.28862 21.5451 7.19174 21.9831 7.19174C22.4212 7.19174 22.8538 7.28862 23.25 7.47543L30.5937 11.3353C30.7787 11.418 30.9407 11.545 31.0652 11.705C31.1897 11.865 31.273 12.0531 31.3078 12.2529H31.3148V31.655C31.2975 31.873 31.2212 32.0822 31.0942 32.2603C30.9672 32.4383 30.7942 32.5785 30.5937 32.6658L23.2515 36.5246C22.8553 36.7114 22.4226 36.8083 21.9846 36.8083C21.5465 36.8083 21.1139 36.7114 20.7177 36.5246L13.3755 32.6658C13.1773 32.5775 13.0069 32.4368 12.8825 32.2589C12.7582 32.081 12.6847 31.8726 12.6699 31.6561C12.6699 31.6229 12.6699 31.5949 12.6699 31.5705V12.2529C12.6998 12.0526 12.7803 11.8632 12.9038 11.7026C13.0272 11.5421 13.1896 11.4157 13.3755 11.3353L20.7162 7.47543ZM30.1586 23.0774L23.2515 26.7087C22.8553 26.8955 22.4226 26.9924 21.9846 26.9924C21.5465 26.9924 21.1139 26.8955 20.7177 26.7087L13.8238 23.0855V31.6166L20.7177 35.221C21.0592 35.4278 21.4346 35.5723 21.8266 35.6479L21.9848 35.6579C22.4152 35.6153 22.8308 35.4774 23.2013 35.2542L30.159 31.5846L30.1586 23.0774ZM11.4758 31.2332C11.4414 31.7713 11.5297 32.3102 11.7339 32.8092C11.9091 33.1285 12.1678 33.3942 12.4822 33.5779L12.5047 33.593C12.5906 33.6505 12.6854 33.711 12.7997 33.7821L12.9353 33.8651L13.3523 34.1154L12.7562 35.099L12.2894 34.8188L12.2109 34.7709C12.076 34.6879 11.9639 34.6168 11.8596 34.5467C10.7444 33.7983 10.3285 32.9821 10.3201 31.2848V31.2332H11.4758ZM21.4052 17.8775C21.3546 17.8947 21.3053 17.9158 21.2578 17.9405L13.9152 21.8004L13.8931 21.8125L13.8868 21.8162L13.8983 21.8229L13.9149 21.8321L21.257 25.6919C21.3045 25.7167 21.3538 25.7377 21.4045 25.755L21.4052 17.8775ZM22.5639 17.8775V25.7542C22.6146 25.737 22.6639 25.7159 22.7114 25.6912L30.0536 21.8313L30.0757 21.8192L30.082 21.8155L30.0705 21.8089L30.0539 21.7996L22.7118 17.9402C22.6642 17.9155 22.6147 17.8946 22.5639 17.8775ZM30.1583 13.6298L23.5729 17.0919L30.159 20.5539L30.1583 13.6298ZM13.8245 13.6379V20.5458L20.3951 17.0919L13.8245 13.6379ZM22.7118 8.49256C22.4822 8.39327 22.2347 8.34205 21.9846 8.34205C21.7345 8.34205 21.487 8.39327 21.2574 8.49256L13.9152 12.3528L13.8931 12.3649L13.8868 12.3686L13.8983 12.3753L13.9149 12.3845L21.257 16.2443C21.4866 16.3436 21.7341 16.3948 21.9842 16.3948C22.2343 16.3948 22.4818 16.3436 22.7114 16.2443L30.0536 12.3845L30.0757 12.3723L30.082 12.3686L30.0705 12.362L30.0539 12.3528L22.7118 8.49256ZM31.244 8.91578L31.7107 9.19633L31.7892 9.24425C31.9242 9.3272 32.0362 9.39835 32.1406 9.4684C33.2557 10.2168 33.672 11.033 33.6801 12.7303V12.7819H32.5243C32.5587 12.2438 32.4705 11.7049 32.2663 11.2059C32.0912 10.8861 31.8326 10.6199 31.5179 10.4358L31.4954 10.4206C31.4095 10.3631 31.3148 10.3027 31.2005 10.2315L31.0648 10.1486L30.6479 9.89825L31.244 8.91578Z"
                fill="white"
        />
    </g>
    <defs>
        <clipPath id="clip0_4732_26036">
            <rect width="44" height="44" fill="white"/>
        </clipPath>
    </defs>
</svg>