<svg xmlns="http://www.w3.org/2000/svg" width="1069" height="1080" fill="none"><path fill="#fff" d="M987.336 0H81.999C37.017 0 .539 36.852.539 82.363v915.274C.54 1043.12 37.017 1080 82 1080h78.78v-66.94c0-15.61 10.062-29.441 24.765-34.145l10.062-3.208 43.829-180.768c2.679-11.464 11.463-20.56 22.802-23.519l32.023-8.505c8.287-2.242 15.077-8.504 18.006-16.79l32.147-90.618c.343-.934.25-2.118-.467-2.959l-46.975-60.246c-1.869-2.367.249-5.669 3.052-5.077l59.717 12.522c.716.25 1.526.125 2.211-.342l97.129-59.685c6.666-4.268 14.952 2.118 12.74 9.812-1.526 5.202 5.016 8.629 8.411 4.486 0 0 12.741-42.428 44.172-62.021 35.886-22.46 59.031-42.303 74.669-60.153-9.47 4.953-19.283 8.754-29.22 10.155-3.738.592-5.389-4.485-2.212-6.51 16.355-10.031 45.574-32.833 71.305-77.503 1.059-2.493 1.993-4.953 3.146-7.321-3.022 1.651-6.324 3.302-9.813 4.735-3.862 1.526-7.133-3.177-4.454-6.261 8.286-9.688 20.559-25.637 31.431-46.072.716-1.994 1.277-3.77 1.869-5.67-13.332-.592-31.338-3.302-40.216-12.647-15.077-15.825-24.765-59.903-9.47-53.424 11.339 4.735 43.362 19.501 60.433 34.609 1.526-4.361 2.461-6.978 2.461-6.978s29.438-21.619 64.295-28.347c2.087-.468 43.58 27.537 46.851 28.721 6.075 2.243 7.726-9.439 16.136-14.423 1.869-1.059 4.455-.467 3.614 1.433-5.265 12.273-12.274 33.331-7.944 47.256 3.614 11.712 14.361 23.643 24.765 35.2 2.461 2.71 4.798 5.327 7.009 7.913 4.455 6.977 8.536 14.547 9.346 21.026.716 6.511 2.928 14.641 3.613 22.336.592 6.385-2.585 12.647-8.286 15.357-1.744.934-3.52 1.184-5.015.467-5.857-2.71-2.461-20.902-2.337-21.4 0-.468.686-2.586 6.417-6.013 5.732-3.551 7.477-9.345 2.088-10.622-7.134-1.776-12.99 8.753-12.99 8.753-2.929-8.161-11.807-6.51-15.669-4.953-3.988 1.651-10.28-5.326-10.872-1.993-.716 3.302 11.931 11.93 16.604 12.772 4.672.934 10.622 7.102 11.12 9.563.468 2.367 2.461 14.174-11.12 17.476-13.551 3.426-44.297-19.719-44.297-19.719 4.922 9.688 32.615 25.419 52.115 24.453 8.536-.342 16.136-3.893 16.604-4.018 0 0-2.679 26.229-29.812 31.182-4.33 4.268-6.323 9.937-.249 16.416 12.024 12.772 13.551 26.354 3.271 32.833-1.994 1.184-4.081-.841-3.146-2.834 3.271-6.511 4.797-17.601-12.616-28.254-10.405-6.386-12.616-15.015-11.588-23.27-11.464-8.286-18.94-22.46-41.961-22.46-11.463 0-27.225-1.526-42.77-5.202 12.274 6.729 25.014 10.872 35.637 10.872 12.491 0 20.466 4.143 26.883 9.345 4.673 3.769 6.417 10.28 4.205 15.949-14.952 36.976 4.922 118.872 4.922 118.872-.124 2.118-2.211 3.551-4.205 2.71l-10.062-4.018c-1.277-.592-2.803-.125-3.613 1.059l-58.657 82.238c-.343.592-.592 1.184-.592 1.776l-5.265 181.485 96.661-30.84-62.519-124.79c-5.016-10.155-4.081-22.335 2.585-31.431l34.827-47.973c3.271-4.485 10.279-2.959 11.339 2.586l36.477 194.381 67.099-21.4c16.136-5.078 30.497 11.806 23.021 27.163L836.41 908.888h31.072c22.211 0 40.357 17.943 40.357 40.403v130.649h79.466c45.015 0 81.455-36.88 81.455-82.365V82.363c0-45.48-36.47-82.363-81.455-82.363h.031ZM773.111 240.485c-3.987 1.775-24.889-16.074-32.739-19.844-5.389-2.585-32.958 8.754-38.222 10.997-1.402.592-2.804-.125-3.396-1.433-14.018-33.799-54.95-58.128-80.525-51.056-17.07 4.734-36.82 14.765-36.82 14.765-3.395-4.018 29.22-40.403 80.058-40.403 67.659 0 113.14 86.257 111.613 86.974h.031Zm17.974-.935c-2.336 1.526-12.865-23.737-12.865-23.737-.124-.592 14.361-41.836-14.61-59.093l-.124.125c-7.258-4.362 24.765-3.77 36.477 17.257 7.134 12.772 7.352 36.633 8.193 47.972.343 4.143-4.081 8.972-17.071 17.476Zm56.695 32.397c-5.95 7.912-14.859 11.463-21.276 13.114.218 1.527.343 2.835.343 3.552 0 .467-.25 2.242-.592 4.018-.343 1.526-1.651 2.492-3.146 2.835-5.483 1.059-9.47 8.629-9.47 8.629s4.33 2.242 8.41 1.433c.935-.125 1.745.841 1.278 1.651-1.184 2.242-2.804 5.202-3.988 7.569-.716 1.433-2.679 1.651-3.738.467-6.417-7.694-11.931-15.232-14.142-22.553h.124c-3.987-12.772 6.791-28.129 11.464-39.219.592-1.433 2.336-1.433 3.146-.249 1.059 1.651 1.994 3.427 2.928 5.327 12.024-9.345 25.482-16.292 32.491-16.417 4.797-.124.716 23.987-3.863 29.905l.031-.062Z"/><path fill="#fff" d="m443.035 702.39-44.514 108.124c-5.857 14.049-17.663 24.828-32.148 29.189l-72.364 21.618c-6.323 1.901-11.681 6.137-14.952 11.931l-52.022 92.767 272.383-87.004-44.701-54.078c-2.337-2.834-2.212-6.978.342-9.688l20.467-21.868c2.211-2.367 2.585-5.918.934-8.753l-16.261-27.88c-2.087-3.676-.685-8.504 3.147-10.28l91.521-44.296c5.015-2.492 10.747 1.526 10.28 7.102l-4.206 57.318c-.81 10.404-5.482 20.217-13.208 27.194l-35.636 32.366c-2.212 1.994-3.053 5.327-1.869 8.162l14.298 36.695 131.207-41.898-59.841-170.021c-.685-1.775-2.679-2.617-4.33-1.775 0 0-43.953 28.596-135.101 71.242-3.489 1.651-7.476-.935-7.476-4.829v-20.092c0-3.427-4.673-4.361-5.95-1.184v-.062ZM632.966 285.995c19.158 6.386 29.095 5.078 29.095 5.078s-5.732-33.674-46.882-38.16c0 0-1.402 26.696 17.756 33.082h.031ZM755.915 304.655s-9.127-9.096-26.166-10.28c0 0-1.869 14.05 11.214 16.542 11.214 2.118 14.952-6.262 14.952-6.262Z"/></svg>