<svg width="123" height="123" viewBox="0 0 123 123" fill="none" xmlns="http://www.w3.org/2000/svg">
<g clip-path="url(#clip0_4850_32232)">
<g clip-path="url(#clip1_4850_32232)">
<path d="M5.15833 1.13433L0.163173 0.0033556C0.0795632 -0.0155751 0 0.0479871 0 0.133714V19.8414C0 19.926 0.0776923 19.9894 0.160604 19.9723L5.15576 18.9442C5.21786 18.9314 5.26246 18.8767 5.26246 18.8132V1.26469C5.26246 1.20225 5.2192 1.14813 5.15833 1.13433Z" fill="#1B2126"/>
<path d="M13.6989 1.13433L18.694 0.0033556C18.7776 -0.0155751 18.8572 0.0479871 18.8572 0.133714V19.8414C18.8572 19.926 18.7795 19.9894 18.6966 19.9723L13.7014 18.9442C13.6393 18.9314 13.5947 18.8767 13.5947 18.8132V1.26469C13.5947 1.20225 13.6379 1.14813 13.6989 1.13433Z" fill="#1B2126"/>
<mask id="mask0_4850_32232" style="mask-type:alpha" maskUnits="userSpaceOnUse" x="6" y="7" width="7" height="6">
<path d="M12.0603 12.4402C12.0603 12.5038 12.0087 12.5554 11.9451 12.5554H6.913C6.8494 12.5554 6.79785 12.5038 6.79785 12.4402V7.40812C6.79785 7.34452 6.8494 7.29297 6.913 7.29297H11.9451C12.0087 7.29297 12.0603 7.34452 12.0603 7.40812V12.4402Z" fill="#0072E5"/>
</mask>
<g mask="url(#mask0_4850_32232)">
<path d="M6.79785 7.29297H12.0603L6.79785 12.5554V7.29297Z" fill="#4960B2"/>
<path d="M12.0603 12.5554H6.79785L12.0603 7.29297V12.5554Z" fill="#34488F"/>
</g>
<path d="M70.5627 0.467773C70.4886 0.467773 70.4287 0.527614 70.4287 0.60143V7.84302C70.4287 7.91687 70.3689 7.97671 70.2952 7.97671H62.8633C62.7896 7.97671 62.7297 7.91687 62.7297 7.84302V0.60143C62.7297 0.527614 62.6698 0.467773 62.5961 0.467773H58.6883C58.6146 0.467773 58.5547 0.527614 58.5547 0.60143V19.3104C58.5547 19.3842 58.6146 19.444 58.6883 19.444H62.5961C62.6698 19.444 62.7297 19.3842 62.7297 19.3104V11.9603C62.7297 11.8865 62.7896 11.8266 62.8633 11.8266H70.2952C70.3689 11.8266 70.4287 11.8865 70.4287 11.9603V19.3104C70.4287 19.3842 70.4886 19.444 70.5627 19.444H74.4694C74.5431 19.444 74.603 19.3842 74.603 19.3104V0.60143C74.603 0.527614 74.5431 0.467773 74.4694 0.467773H70.5627Z" fill="#1B2126"/>
<path d="M30.6515 5.52896C30.6787 5.46256 30.7727 5.46256 30.7999 5.52896L33.2011 11.3907C33.2227 11.4435 33.1839 11.5013 33.1269 11.5013H28.3243C28.2672 11.5013 28.2284 11.4435 28.25 11.3907L30.6515 5.52896ZM28.9436 0.333008C28.89 0.333008 28.8416 0.365018 28.8206 0.41433L20.8018 19.258C20.7643 19.3462 20.829 19.444 20.9248 19.444H24.889C24.9433 19.444 24.9922 19.4111 25.0127 19.3608L26.6796 15.2714C26.7002 15.2211 26.7491 15.1882 26.8034 15.1882H34.6477C34.702 15.1882 34.751 15.2211 34.7715 15.2714L36.4388 19.3608C36.4593 19.4111 36.5082 19.444 36.5625 19.444H40.6357C40.7312 19.444 40.7961 19.3461 40.7585 19.258L32.7391 0.414326C32.7181 0.365016 32.6697 0.333008 32.6161 0.333008H28.9436Z" fill="#1B2126"/>
<path d="M41.2056 16.7651C41.1515 16.7177 41.1454 16.6355 41.1918 16.5802L43.491 13.826C43.5378 13.7695 43.6219 13.7619 43.6791 13.8083C45.3553 15.1694 47.1164 16.0289 49.2417 16.0289C50.9494 16.0289 51.9796 15.3516 51.9796 14.2397V14.1856C51.9796 13.1282 51.329 12.5863 48.1569 11.7732C44.3347 10.7971 41.8678 9.73965 41.8678 5.97212V5.91735C41.8678 2.47399 44.6329 0.197266 48.5093 0.197266C51.2277 0.197266 53.5541 1.03624 55.4606 2.53278C55.5155 2.57603 55.527 2.65472 55.4871 2.71239L53.4654 5.64406C53.4232 5.70494 53.3399 5.72002 53.2789 5.67837C51.6353 4.55822 50.0193 3.88385 48.4552 3.88385C46.8557 3.88385 46.0159 4.61529 46.0159 5.538V5.59174C46.0159 6.83899 46.8289 7.24555 50.1095 8.08554C53.9583 9.08916 56.1274 10.4715 56.1274 13.7784V13.8321C56.1274 17.6007 53.2539 19.7155 49.1603 19.7155C46.328 19.7158 43.4676 18.7407 41.2056 16.7651Z" fill="#1B2126"/>
<path d="M89.1867 0.467773C89.1126 0.467773 89.0527 0.527614 89.0527 0.60143V19.3104C89.0527 19.3842 89.1126 19.444 89.1867 19.444H103.368C103.442 19.444 103.502 19.3842 103.502 19.3104V15.8636C103.502 15.7897 103.442 15.7299 103.368 15.7299H93.3329C93.2592 15.7299 93.1993 15.6701 93.1993 15.5962V11.8786C93.1993 11.8048 93.2592 11.7449 93.3329 11.7449H102.013C102.087 11.7449 102.147 11.6851 102.147 11.6113V8.16479C102.147 8.09098 102.087 8.03114 102.013 8.03114H93.3329C93.2592 8.03114 93.1993 7.9713 93.1993 7.89749V4.31558C93.1993 4.24177 93.2592 4.18193 93.3329 4.18193H103.233C103.307 4.18193 103.366 4.12209 103.366 4.04828V0.60143C103.366 0.527614 103.307 0.467773 103.233 0.467773H89.1867Z" fill="#1B2126"/>
<path d="M118.27 0.467773C118.223 0.467773 118.179 0.492224 118.155 0.532247L113.702 7.89453C113.649 7.98086 113.524 7.9804 113.472 7.89361L109.097 0.533141C109.073 0.492612 109.03 0.467773 108.983 0.467773H104.422C104.316 0.467773 104.253 0.584038 104.309 0.673027L111.45 11.9292C111.463 11.9506 111.47 11.9755 111.47 12.0008V19.3104C111.47 19.3842 111.53 19.444 111.604 19.444H115.512C115.586 19.444 115.646 19.3842 115.646 19.3104V11.9201C115.646 11.8946 115.653 11.8696 115.667 11.8481L122.807 0.673392C122.863 0.584426 122.8 0.467773 122.694 0.467773H118.27Z" fill="#1B2126"/>
<path d="M81.6385 0.46875C81.6032 0.46875 81.5691 0.482829 81.5441 0.507886L78.6327 3.41837L75.7769 6.27415C75.7247 6.32635 75.7247 6.41099 75.7769 6.46319L78.5383 9.22414C78.5905 9.27631 78.6753 9.27631 78.7275 9.22414L81.5833 6.36865L84.5331 3.41837L87.3466 0.605657C87.3969 0.55514 87.3612 0.46875 87.2898 0.46875H81.6385Z" fill="#1B2126"/>
<mask id="mask1_4850_32232" style="mask-type:alpha" maskUnits="userSpaceOnUse" x="75" y="10" width="13" height="10">
<path d="M78.7648 10.7999C78.7126 10.7477 78.6282 10.7477 78.576 10.7999L75.8526 13.5235C75.8004 13.5757 75.8004 13.6604 75.8526 13.7126L81.5446 19.4044C81.5695 19.4295 81.6037 19.4436 81.639 19.4436L87.2146 19.444C87.286 19.444 87.3221 19.3576 87.2714 19.3071L78.7648 10.7999Z" fill="#66B3FF"/>
</mask>
<g mask="url(#mask1_4850_32232)">
<path d="M81.5833 13.6185L78.6704 10.7061L75.7578 13.6185H81.5833Z" fill="#1B2C69"/>
<path d="M75.7578 13.6191L78.6704 16.5319L81.5833 13.6191H75.7578Z" fill="#34488F"/>
<path d="M84.4963 16.5319L81.5834 13.6191L78.6704 16.5319H84.4963Z" fill="#4960B2"/>
<path d="M78.6704 16.5312L81.5834 19.444L84.4963 16.5312H78.6704Z" fill="#6E84D1"/>
<path d="M81.583 19.4444H87.4081L84.4956 16.5312L81.583 19.4444Z" fill="#9EB0F1"/>
</g>
<path d="M58.3433 27.9757C58.3433 27.8733 58.4669 27.8219 58.5394 27.894L63.137 32.4609C63.1823 32.5058 63.1823 32.5787 63.1378 32.6238L58.5402 37.2521C58.4676 37.325 58.3433 37.2737 58.3433 37.1709V27.9757Z" fill="#1B2126"/>
<path d="M107.268 37.5893C107.159 37.5893 107.091 37.5213 107.091 37.4124V27.7832C107.091 27.6745 107.159 27.6064 107.268 27.6064H110.586C113.905 27.6064 115.632 29.4561 115.632 32.5978C115.632 35.726 113.905 37.5893 110.586 37.5893H107.268ZM110.382 29.3337H108.927V35.862H110.382C112.599 35.862 113.728 34.6923 113.728 32.5978C113.728 30.5034 112.599 29.3337 110.382 29.3337Z" fill="#1B2C69"/>
<path d="M100.767 37.7797C98.8078 37.7797 96.7271 36.6916 96.7271 33.5227V27.7832C96.7271 27.6745 96.795 27.6064 96.904 27.6064H98.3864C98.495 27.6064 98.5629 27.6745 98.5629 27.7832V33.1963C98.5629 35.1547 99.5152 35.9844 100.767 35.9844C102.004 35.9844 102.983 35.1547 102.983 33.1963V27.7832C102.983 27.6745 103.051 27.6064 103.16 27.6064H104.643C104.751 27.6064 104.82 27.6745 104.82 27.7832V33.5227C104.82 36.6916 102.725 37.7797 100.767 37.7797Z" fill="#1B2C69"/>
<path d="M89.4765 37.7797C86.5662 37.7797 84.4443 35.726 84.4443 32.5978C84.4443 29.4697 86.5662 27.416 89.4765 27.416C92.3871 27.416 94.5086 29.4697 94.5086 32.5978C94.5086 35.726 92.3871 37.7797 89.4765 37.7797ZM89.4765 35.9844C91.3941 35.9844 92.6047 34.5699 92.6047 32.5978C92.6047 30.6257 91.3941 29.2113 89.4765 29.2113C87.5588 29.2113 86.3486 30.6257 86.3486 32.5978C86.3486 34.5699 87.5588 35.9844 89.4765 35.9844Z" fill="#1B2C69"/>
<path d="M76.8675 37.5893C76.7589 37.5893 76.6909 37.5213 76.6909 37.4124V27.7832C76.6909 27.6745 76.7589 27.6064 76.8675 27.6064H78.3503C78.4589 27.6064 78.5268 27.6745 78.5268 27.7832V35.8348H83.3417C83.4503 35.8348 83.5183 35.9028 83.5183 36.0116V37.4124C83.5183 37.5213 83.4503 37.5893 83.3417 37.5893H76.8675Z" fill="#1B2C69"/>
<path fill-rule="evenodd" clip-rule="evenodd" d="M73.7264 30.4463C73.7755 30.4981 73.8596 30.4957 73.9037 30.4399L74.9351 29.1445C74.9712 29.0989 74.9677 29.0333 74.9263 28.9927C73.9014 27.9925 72.4678 27.4062 71.0353 27.4062C67.988 27.4062 65.6362 29.6385 65.6362 32.5591C65.6362 35.5078 67.9581 37.7699 70.9628 37.7699C72.4451 37.7699 73.8872 37.0986 74.9378 36.0706C74.9812 36.028 74.9827 35.9588 74.942 35.9135L73.8995 34.752C73.8554 34.7031 73.7801 34.7008 73.7318 34.7455C73.0125 35.4145 72.0578 35.8675 71.0645 35.8675C69.1729 35.8675 67.6978 34.4066 67.6978 32.5301C67.6978 30.6682 69.1725 29.2071 71.0645 29.2071C72.0828 29.2071 73.0362 29.7197 73.7264 30.4463Z" fill="#1B2C69"/>
</g>
</g>
<defs>
<clipPath id="clip0_4850_32232">
<rect width="122.828" height="38" fill="white"/>
</clipPath>
<clipPath id="clip1_4850_32232">
<rect width="122.828" height="38" fill="white"/>
</clipPath>
</defs>
</svg>
