<svg xmlns="http://www.w3.org/2000/svg" xml:space="preserve" style="enable-background:new 0 0 1920 1080" viewBox="819.5 321.5 280 280"><path fill="#FFF" d="M959.5 321.5c-77.3 0-140 62.7-140 140s62.7 140 140 140 140-62.7 140-140-62.7-140-140-140zm-6.1 56.5c3.9-1.9 8-1.8 11.8.4 13.1 7.5 26.1 15 39.1 22.6 4.2 2.5 6.3 6.4 6.3 11.2.1 16.9 0 33.8 0 50.8 0 .6-.4 1.5-.9 1.8-5 3-10.1 5.9-15.6 9.1V419c0-3.3-1.1-5.5-4.1-7.2-15.2-8.6-30.3-17.4-45.4-26.1-.7-.4-1.3-.8-2.3-1.4 3.9-2.2 7.4-4.4 11.1-6.3zm-2.7 173.2c-.8-.4-1.5-.7-2.1-1.1-20-11.5-40-23.2-60.1-34.6-5.6-3.2-8.2-7.8-8.2-14.2.1-13.7.1-27.4 0-41 0-6.2 2.5-10.6 7.9-13.7 14.1-8 28.1-16.2 42.2-24.3 1.2-.7 2.1-.8 3.4-.1 4.8 2.9 9.8 5.7 14.9 8.7-1 .6-1.7 1-2.5 1.5-15.2 8.8-30.3 17.6-45.6 26.3-2.5 1.4-3.7 3.3-3.6 6.2.1 10.8.1 21.5 0 32.3 0 3 1.2 4.9 3.7 6.3 16.1 9.2 32.1 18.5 48.1 27.7 1.4.8 1.9 1.6 1.9 3.2-.1 5.3 0 10.9 0 16.8zm0-30.9c-1.4-.8-2.4-1.4-3.4-1.9-12.7-7.4-25.5-14.7-38.2-22-1.4-.8-1.9-1.6-1.9-3.2.1-8.3.1-16.6 0-24.9 0-1.1.2-1.9 1.3-2.5 4.7-2.6 9.3-5.4 14-8 .3-.2.7-.3 1.3-.6v9.3c0 5 .1 10.1 0 15.1-.1 2.9 1 4.8 3.5 6.2 7.2 4.1 14.3 8.3 21.5 12.4 1.4.8 1.8 1.7 1.8 3.2 0 5.4.1 10.9.1 16.9zM936 411.5c-2.7-1.6-5-1.6-7.7 0-15.1 8.8-30.3 17.6-45.5 26.3-.6.4-1.3.7-2.4 1.3.4-5.8-.8-11.2 1.1-16.5 1.1-2.9 3.1-5 5.7-6.6 12.7-7.3 25.3-14.7 38-21.9 4.6-2.7 9.4-2.6 14 .1 14.4 8.3 28.8 16.6 43.2 25 .6.4 1.4 1.1 1.4 1.7.1 5.9.1 11.9.1 18.2-5.2-3-10.1-5.8-14.9-8.6-11.1-6.2-22.1-12.5-33-19zm101.3 93.2c-.4 4.7-3.1 8-7.1 10.3-15.4 8.9-30.8 17.8-46.3 26.7-4.8 2.8-9.7 5.6-14.5 8.4l-2 1c0-.8-.1-1.4-.1-2v-15.3c0-1.2.3-1.9 1.3-2.5 22.5-12.9 45-25.9 67.5-38.9.3-.2.7-.4 1.3-.7-.1 4.6.2 8.8-.1 13zm.1-32.2c0 5.3-2.9 9-7.4 11.6-17.6 10.1-35.2 20.3-52.7 30.4-3.2 1.8-6.4 3.7-9.9 5.7 0-.9-.1-1.5-.1-2v-15.1c0-1.4.5-2.2 1.7-2.9 16-9.2 31.9-18.5 47.9-27.6 2.8-1.6 4.1-3.6 4.1-7-.1-17.4-.1-34.8-.1-52.2v-3c4.2 2.5 8.1 4.6 11.7 7.1 3.3 2.3 4.9 5.8 4.9 9.8-.1 15.1 0 30.1-.1 45.2z"/></svg>
