<svg width="93" height="31" viewBox="0 0 93 31" fill="none" xmlns="http://www.w3.org/2000/svg">
<path fill-rule="evenodd" clip-rule="evenodd" d="M15.3515 0C23.8299 0 30.7031 6.87311 30.7031 15.3515C30.7031 23.8299 23.8299 30.7031 15.3515 30.7031C6.87311 30.7031 0 23.8299 0 15.3515C0 6.87311 6.87311 0 15.3515 0ZM15.4746 28.7531C16.6878 28.7288 17.5426 27.8823 17.5426 26.8408C17.5426 25.7841 16.7099 25.0011 15.6439 25.0011C15.1075 25.0011 14.8641 25.0011 14.6211 24.9909C14.4222 24.9827 14.2235 24.9676 13.8644 24.9403L13.8493 24.9391L13.6217 24.9218C12.574 24.8426 11.6889 24.0688 11.6889 23.009C11.6889 21.9522 12.5525 21.0962 13.6217 21.0962H15.6131C16.6791 21.0962 17.5426 20.2401 17.5426 19.1834C17.5426 18.1235 16.6791 17.2675 15.6131 17.2675H9.0691C7.99998 17.2675 7.13645 16.4114 7.13645 15.3547C7.13645 14.2948 7.99998 13.4355 9.0691 13.4355H22.0481C23.1141 13.4355 23.9776 12.5795 23.9776 11.5228C23.9776 10.4661 23.1141 9.61 22.0481 9.61H13.6217C12.5525 9.61 11.6889 8.75395 11.6889 7.69094C11.6889 6.63419 12.6714 5.85428 13.6217 5.77814C14.5718 5.702 14.6205 5.702 15.6131 5.702C16.6057 5.702 17.5426 4.92208 17.5426 3.86221C17.5426 2.82082 16.8402 1.97433 15.4711 1.94995C15.4314 1.9496 15.3914 1.94942 15.3515 1.94942C7.94973 1.94942 1.9494 7.94976 1.9494 15.3515C1.9494 22.7459 7.93779 28.7417 15.3294 28.7537H15.3736C15.3932 28.7536 15.4127 28.7536 15.4321 28.7534C15.4463 28.7534 15.4604 28.7533 15.4746 28.7531ZM45.2676 28.8389V2.73265H49.584V6.07896C51.0079 3.5443 54.0004 1.97316 57.3846 1.97316C62.9291 1.97316 66.9517 5.01341 66.9517 12.8713V28.8389H62.5375V13.531C62.5375 8.66579 60.2325 6.28301 56.4056 6.28301C52.0892 6.28301 49.6841 9.32552 49.6841 13.683V28.8389H45.2676ZM70.4355 2.7345V28.8385H74.8499V20.3729L79.0682 16.2172L87.8501 28.8385H93.0008L82.0608 13.075L92.4135 2.73223H86.722L74.8499 14.696V2.7345H70.4355ZM36.3672 28.8388V2.68491H40.8526V28.8388H36.3672Z" fill="url(#paint0_radial_2852_45757)"/>
<path fill-rule="evenodd" clip-rule="evenodd" d="M15.3515 0C23.8299 0 30.7031 6.87311 30.7031 15.3515C30.7031 23.8299 23.8299 30.7031 15.3515 30.7031C6.87311 30.7031 0 23.8299 0 15.3515C0 6.87311 6.87311 0 15.3515 0ZM15.4746 28.7531C16.6878 28.7288 17.5426 27.8823 17.5426 26.8408C17.5426 25.7841 16.7099 25.0011 15.6439 25.0011C15.1075 25.0011 14.8641 25.0011 14.6211 24.9909C14.4222 24.9827 14.2235 24.9676 13.8644 24.9403L13.8493 24.9391L13.6217 24.9218C12.574 24.8426 11.6889 24.0688 11.6889 23.009C11.6889 21.9522 12.5525 21.0962 13.6217 21.0962H15.6131C16.6791 21.0962 17.5426 20.2401 17.5426 19.1834C17.5426 18.1235 16.6791 17.2675 15.6131 17.2675H9.0691C7.99998 17.2675 7.13645 16.4114 7.13645 15.3547C7.13645 14.2948 7.99998 13.4355 9.0691 13.4355H22.0481C23.1141 13.4355 23.9776 12.5795 23.9776 11.5228C23.9776 10.4661 23.1141 9.61 22.0481 9.61H13.6217C12.5525 9.61 11.6889 8.75395 11.6889 7.69094C11.6889 6.63419 12.6714 5.85428 13.6217 5.77814C14.5718 5.702 14.6205 5.702 15.6131 5.702C16.6057 5.702 17.5426 4.92208 17.5426 3.86221C17.5426 2.82082 16.8402 1.97433 15.4711 1.94995C15.4314 1.9496 15.3914 1.94942 15.3515 1.94942C7.94973 1.94942 1.9494 7.94976 1.9494 15.3515C1.9494 22.7459 7.93779 28.7417 15.3294 28.7537H15.3736C15.3932 28.7536 15.4127 28.7536 15.4321 28.7534C15.4463 28.7534 15.4604 28.7533 15.4746 28.7531ZM45.2676 28.8389V2.73265H49.584V6.07896C51.0079 3.5443 54.0004 1.97316 57.3846 1.97316C62.9291 1.97316 66.9517 5.01341 66.9517 12.8713V28.8389H62.5375V13.531C62.5375 8.66579 60.2325 6.28301 56.4056 6.28301C52.0892 6.28301 49.6841 9.32552 49.6841 13.683V28.8389H45.2676ZM70.4355 2.7345V28.8385H74.8499V20.3729L79.0682 16.2172L87.8501 28.8385H93.0008L82.0608 13.075L92.4135 2.73223H86.722L74.8499 14.696V2.7345H70.4355ZM36.3672 28.8388V2.68491H40.8526V28.8388H36.3672Z" fill="white"/>
<path fill-rule="evenodd" clip-rule="evenodd" d="M15.3515 0C23.8299 0 30.7031 6.87311 30.7031 15.3515C30.7031 23.8299 23.8299 30.7031 15.3515 30.7031C6.87311 30.7031 0 23.8299 0 15.3515C0 6.87311 6.87311 0 15.3515 0ZM15.4746 28.7531C16.6878 28.7288 17.5426 27.8823 17.5426 26.8408C17.5426 25.7841 16.7099 25.0011 15.6439 25.0011C15.1075 25.0011 14.8641 25.0011 14.6211 24.9909C14.4222 24.9827 14.2235 24.9676 13.8644 24.9403L13.8493 24.9391L13.6217 24.9218C12.574 24.8426 11.6889 24.0688 11.6889 23.009C11.6889 21.9522 12.5525 21.0962 13.6217 21.0962H15.6131C16.6791 21.0962 17.5426 20.2401 17.5426 19.1834C17.5426 18.1235 16.6791 17.2675 15.6131 17.2675H9.0691C7.99998 17.2675 7.13645 16.4114 7.13645 15.3547C7.13645 14.2948 7.99998 13.4355 9.0691 13.4355H22.0481C23.1141 13.4355 23.9776 12.5795 23.9776 11.5228C23.9776 10.4661 23.1141 9.61 22.0481 9.61H13.6217C12.5525 9.61 11.6889 8.75395 11.6889 7.69094C11.6889 6.63419 12.6714 5.85428 13.6217 5.77814C14.5718 5.702 14.6205 5.702 15.6131 5.702C16.6057 5.702 17.5426 4.92208 17.5426 3.86221C17.5426 2.82082 16.8402 1.97433 15.4711 1.94995C15.4314 1.9496 15.3914 1.94942 15.3515 1.94942C7.94973 1.94942 1.9494 7.94976 1.9494 15.3515C1.9494 22.7459 7.93779 28.7417 15.3294 28.7537H15.3736C15.3932 28.7536 15.4127 28.7536 15.4321 28.7534C15.4463 28.7534 15.4604 28.7533 15.4746 28.7531ZM45.2676 28.8389V2.73265H49.584V6.07896C51.0079 3.5443 54.0004 1.97316 57.3846 1.97316C62.9291 1.97316 66.9517 5.01341 66.9517 12.8713V28.8389H62.5375V13.531C62.5375 8.66579 60.2325 6.28301 56.4056 6.28301C52.0892 6.28301 49.6841 9.32552 49.6841 13.683V28.8389H45.2676ZM70.4355 2.7345V28.8385H74.8499V20.3729L79.0682 16.2172L87.8501 28.8385H93.0008L82.0608 13.075L92.4135 2.73223H86.722L74.8499 14.696V2.7345H70.4355ZM36.3672 28.8388V2.68491H40.8526V28.8388H36.3672Z" fill="url(#paint1_radial_2852_45757)"/>
<defs>
<radialGradient id="paint0_radial_2852_45757" cx="0" cy="0" r="1" gradientUnits="userSpaceOnUse" gradientTransform="translate(46.5004 -0.0969828) rotate(90) scale(30.8971 93.5885)">
<stop stop-color="#2E2E2E"/>
<stop offset="1" stop-color="#080808"/>
</radialGradient>
<radialGradient id="paint1_radial_2852_45757" cx="0" cy="0" r="1" gradientUnits="userSpaceOnUse" gradientTransform="translate(90.8812 -3.04385) rotate(141.085) scale(86.8451 173.221)">
<stop offset="0.155205" stop-color="#8049F2"/>
<stop offset="1" stop-color="#6D4EAE" stop-opacity="0"/>
</radialGradient>
</defs>
</svg>
