<svg width="32" height="32" viewBox="0 0 32 32" fill="none" xmlns="http://www.w3.org/2000/svg">
<g clip-path="url(#clip0_3677_27338)">
<path fill-rule="evenodd" clip-rule="evenodd" d="M0 16C0 7.16341 7.16346 0 16 0C24.8366 0 32 7.16341 32 16C32 24.8366 24.8366 32 16 32C7.16346 32 0 24.8366 0 16Z" fill="black"/>
<path d="M24.1608 10.1571C23.8588 9.91897 23.4986 9.5937 22.8423 9.51238C22.2266 9.43107 21.5993 9.84346 21.1753 10.1164C20.7513 10.3894 19.9498 11.191 19.6187 11.4349C19.2876 11.6789 18.4396 11.9054 17.0746 12.7244C15.7097 13.5434 10.3544 16.9819 10.3544 16.9819L11.7484 16.9993L5.53349 20.1997H6.15498L5.2605 20.8793C5.2605 20.8793 6.05043 21.0884 6.71258 20.6702V20.8618C6.71258 20.8618 14.1124 17.9461 15.5412 18.7012L14.67 18.9567C14.7455 18.9567 16.1511 19.0497 16.1511 19.0497C16.1511 19.0497 16.1976 19.9267 17.0456 20.4901C17.8936 21.0477 17.911 21.3556 17.911 21.3556C17.911 21.3556 17.4696 21.5356 17.4696 21.7621C17.4696 21.7621 18.1201 21.5647 18.7242 21.5821C19.3283 21.5995 19.8568 21.7621 19.8568 21.7621C19.8568 21.7621 19.8104 21.5182 19.2237 21.3556C18.6313 21.1871 18.0562 20.554 17.7716 20.2055C17.487 19.857 17.2895 19.2355 17.5335 18.614C17.7368 18.0855 18.4454 17.7951 19.9091 17.04C21.6342 16.1455 22.0291 15.4833 22.2731 14.9664C22.517 14.4495 22.8771 13.4214 23.0804 12.9393C23.336 12.3178 23.6497 11.9867 23.911 11.7892C24.1666 11.5918 25.3341 11.1561 25.3341 11.1561C25.3341 11.1561 24.4454 10.3836 24.1608 10.1571Z" fill="white"/>
</g>
<defs>
<clipPath id="clip0_3677_27338">
<rect width="32" height="32" fill="white"/>
</clipPath>
</defs>
</svg>
