<svg xmlns="http://www.w3.org/2000/svg" xmlns:xlink="http://www.w3.org/1999/xlink" fill="none" height="48"
    viewBox="0 0 159 48" width="159">
    <linearGradient id="a" gradientUnits="userSpaceOnUse" x1="-.428939" x2="48.2623" y1="24.4435" y2="23.5562">
        <stop offset="0" stop-color="#fff" />
        <stop offset=".49" stop-color="#fff" />
        <stop offset="1" stop-color="#fff" />
    </linearGradient>
    <path clip-rule="evenodd"
        d="m11.1199 41.2109c-5.21873-3.9131-8.60475-10.1674-8.60475-17.2109 0-11.8565 9.58615-21.47609 21.40145-21.47609 9.7551 0 20.4071 5.85 22.9808 14.81089-2.8791-10.01089-12.0753-17.3348-22.9808-17.3348-13.2061 0-23.9166 10.7478-23.9166 24s10.7105 24 23.9166 24c13.2062 0 23.9167-10.7478 23.9167-24v-1.2652h-1.3129c-.039 0-.0975 0-.1754 0-.156 0-.377-.0065-.6629-.0196-.5655-.0195-1.3454-.0587-2.2227-.1369-1.7938-.1566-3.841-.4631-5.2318-1.024-2.2422-.9-3.5095-2.0869-4.9523-3.4826l-.0845-.0782c-1.4493-1.3957-3.074-2.9674-5.9012-4.2978-2.7816-1.3109-5.8556-1.1022-8.1108-.6327-1.1438.2348-2.1317.5479-2.8271.8022-.351.1239-.6304.2413-.8254.3196-1.1373.4826-2.2422 1.05-3.3535 1.5782 0 0 2.1902.6 3.269.9392.039.013.0975.0326.182.0587.1625.0521.3964.1369.6759.2543.5719.2348 1.3193.5805 2.0602 1.0631 1.1698.75 2.1382 1.7021 2.5347 2.863-2.4762.3261-4.8029 1.4217-6.5446 2.4457-1.0529.6195-1.9303 1.2456-2.5477 1.7087-.3054.2347-.5524.4304-.7214.5673-.1429.1174-2.37863 2.0935-2.37863 2.0935s2.88563.3065 4.30893.5935c.9488.1891 2.2227.5022 3.5615.9652 1.3388.4696 2.6906 1.0826 3.8149 1.8718 1.1244.7891 1.9497 1.6956 2.3527 2.7391 1.1828 3.0391.0195 5.9935-2.3137 7.6565-2.3072 1.6435-5.8102 2.0348-9.3132-.3783zm8.1629 3.7565c.9423-.3065 1.8197-.7565 2.6126-1.3174 3.1716-2.263 4.8418-6.4109 3.1976-10.637-.6499-1.663-1.8848-2.9282-3.2561-3.8934-1.3778-.9652-2.9571-1.6696-4.4259-2.1848-.9618-.3391-1.8977-.6-2.7101-.7957.2925-.1891.5979-.3848.9294-.5804 1.9367-1.1413 4.3804-2.1913 6.72-2.1913 3.529 0 6.1547 1.0891 8.6633 2.25.2275.1043.455.2152.6889.3196 2.2422 1.0565 4.5949 2.1652 7.331 2.1652s4.7183-.75 6.1416-1.5326c-1.2673 10.6434-10.2945 18.9-21.2455 18.9-1.5923 0-3.1455-.1761-4.6338-.5022zm23.1627-19.9435c-.9424.3196-2.0862.5544-3.4185.5544-2.1447 0-3.9904-.8609-6.3301-1.9566-.208-.0978-.416-.1956-.6304-.2934-2.3462-1.0892-5.0563-2.2435-8.5853-2.4522-.4744-2.3413-2.2422-3.9457-3.763-4.9239-.169-.1109-.3379-.2152-.5069-.3131.1495-.0326.3054-.0717.4679-.1043 2.0407-.4239 4.4714-.5283 6.5316.45 2.4437 1.1543 3.828 2.4848 5.2643 3.8674l.052.0456c1.4752 1.4218 3.0415 2.9152 5.7646 4.0109 1.5143.6065 3.477.9326 5.1538 1.1152z"
        fill="url(#a)" fill-rule="evenodd" />
    <g fill="#fff">
        <path
            d="m63.314 18.8289v-14.17827h2.7036l2.3397 5.69347 2.3397-5.69347h2.7036v14.17827h-2.1187v-10.89783l-2.9441 7.02393-2.9441-7.02393v10.89783z" />
        <path
            d="m76.6111 18.8289 4.4389-14.17827h2.8661l4.4389 14.17827h-2.4632l-1.0268-3.4239h-4.8613l-1.0074 3.4239h-2.3787zm3.932-5.3087h3.7955l-1.8978-6.3z" />
        <path
            d="m91.8255 18.8289v-14.17827h2.4437l5.1082 9.91957-.039-9.91957h2.0606v14.17827h-2.2425l-5.3098-10.24566.039 10.24566z" />
        <path d="m109.522 18.8289v-12.11087h-4.38v-2.0674h11.179v2.0674h-4.381v12.11087h-2.424z" />
        <path
            d="m118.992 18.8289 4.439-14.17827h2.866l4.438 14.17827h-2.463l-1.027-3.4239h-4.861l-1.007 3.4239h-2.379zm3.932-5.3087h3.795l-1.898-6.3z" />
        <path
            d="m63.574 43.1289v-14.1782h2.4436l5.1083 9.9195-.039-9.9195h2.0602v14.1782h-2.2422l-5.3097-10.2456.039 10.2456z" />
        <path
            d="m78.1839 43.1289v-14.1782h9.2417v2.0674h-6.824v3.9521h4.4194v2.0218h-4.4194v4.0696h6.902v2.0673h-9.3262z" />
        <path d="m95.4 43.1289v-12.1108h-4.3804v-2.0674h11.1784v2.0674h-4.3804v12.1108h-2.4241z" />
        <path
            d="m106.682 43.1289-1.657-14.1782h2.138l.891 9.3587 1.813-9.3587h1.813l1.813 9.2739.891-9.2739h2.06l-1.638 14.1782h-2.177l-1.878-10.0043-1.898 10.0043h-2.177z" />
        <path
            d="m124.86 43.3506c-.994 0-1.91-.2869-2.742-.8478-.832-.5674-1.502-1.3956-1.995-2.4782-.501-1.0892-.748-2.4131-.748-3.9783s.247-2.8957.748-3.9783c.5-1.0891 1.163-1.9108 1.995-2.4782s1.748-.8479 2.742-.8479c.995 0 1.905.287 2.736.8479.826.5674 1.495 1.3956 1.996 2.4782.507 1.0892.754 2.4131.754 3.9783s-.254 2.8956-.754 3.9783c-.507 1.0891-1.17 1.9108-1.996 2.4782-.825.5674-1.741.8478-2.736.8478zm0-2.1847c.566 0 1.079-.1892 1.547-.5805.462-.3848.832-.9587 1.098-1.7217.267-.7631.403-1.7022.403-2.8239 0-1.1218-.136-2.0609-.403-2.8174-.266-.7565-.636-1.3305-1.098-1.7218-.461-.3913-.981-.5869-1.547-.5869-.565 0-1.078.1956-1.546.5869-.462.3913-.832.9653-1.099 1.7218-.266.7565-.403 1.6956-.403 2.8174 0 1.1217.137 2.0608.403 2.8239.267.763.637 1.3369 1.099 1.7217.461.3848.981.5805 1.546.5805z" />
        <path
            d="m134.589 43.1289v-14.1782h4.803c.943 0 1.768.1761 2.47.5348.708.3587 1.254.8543 1.657 1.5.397.6391.598 1.3891.598 2.2369 0 .9326-.24 1.7348-.728 2.4065-.487.6783-1.144 1.1674-1.976 1.4805l3.088 6.013h-2.607l-2.807-5.6674h-2.08v5.6674h-2.424zm2.425-7.6108h2.177c.754 0 1.352-.2087 1.807-.6196.448-.4109.675-.9522.675-1.6304 0-.6783-.227-1.2392-.675-1.65-.449-.4109-1.053-.6196-1.807-.6196h-2.177v4.5131z" />
        <path
            d="m148.491 43.1289v-14.1782h2.424v6.3391l5.063-6.3391h2.762l-5.693 6.8674 5.953 7.3108h-3.048l-5.043-6.4826v6.4826h-2.425z" />
    </g>
</svg>