<svg width="498" height="98" viewBox="0 0 498 98" fill="none" xmlns="http://www.w3.org/2000/svg">
<path fill-rule="evenodd" clip-rule="evenodd" d="M38.7858 8.14008C38.7858 3.64841 42.4397 0 46.9574 0C51.4751 0 55.129 3.6398 55.129 8.14008V55.8878C55.129 60.3794 51.4751 64.0279 46.9574 64.0279C42.4483 64.0279 38.7858 60.388 38.7858 55.8878V8.14008ZM0.978279 8.14063C0.978279 3.64035 4.64081 0.000548299 9.14988 0.000548299C13.6676 0.000548299 17.3301 3.64035 17.3215 8.14063V81.6562H56.8658C61.3574 81.6562 65.0059 85.3101 65.0059 89.8278C65.0059 94.3455 61.3661 97.9994 56.8658 97.9994L9.24585 97.9994C9.2139 97.9997 9.18191 97.9999 9.14988 97.9999C9.09401 97.9999 9.03827 97.9994 8.98266 97.9983C6.82608 97.9629 4.87195 97.0853 3.43437 95.6778C1.93034 94.2117 0.99214 92.1711 0.978431 89.9101C0.978162 89.8827 0.978027 89.8553 0.978027 89.8278C0.978027 89.8061 0.978111 89.7845 0.978279 89.7629V8.14063ZM84.7671 0C80.2494 0 76.5955 3.64841 76.5955 8.14008V55.8878C76.5955 60.388 80.258 64.0279 84.7671 64.0279C89.2848 64.0279 92.9387 60.3794 92.9387 55.8878V8.14008C92.9387 3.6398 89.2848 0 84.7671 0Z" fill="white"/>
<path d="M449.881 84.7748V76.9415L474.115 51.8329C476.703 49.1052 478.836 46.7156 480.515 44.664C482.217 42.5891 483.487 40.6191 484.327 38.754C485.166 36.8889 485.586 34.9073 485.586 32.8091C485.586 30.4311 485.026 28.3795 483.907 26.6543C482.788 24.9058 481.261 23.5653 479.326 22.6328C477.391 21.6769 475.211 21.199 472.786 21.199C470.222 21.199 467.984 21.7235 466.072 22.7726C464.16 23.8217 462.692 25.3021 461.666 27.2138C460.64 29.1256 460.127 31.3636 460.127 33.9281H449.811C449.811 29.5685 450.814 25.7568 452.818 22.4929C454.823 19.229 457.574 16.6995 461.071 14.9043C464.568 13.0859 468.543 12.1767 472.996 12.1767C477.496 12.1767 481.459 13.0742 484.886 14.8694C488.337 16.6412 491.029 19.0658 492.964 22.1432C494.899 25.1972 495.867 28.6476 495.867 32.4944C495.867 35.1521 495.366 37.7515 494.363 40.2927C493.384 42.8339 491.67 45.6665 489.222 48.7905C486.775 51.8912 483.371 55.6563 479.011 60.0858L464.778 74.9832V75.5077H497.021V84.7748H449.881Z" fill="white"/>
<path d="M401.184 84.775V13.156H411.99V75.4729H444.442V84.775H401.184Z" fill="white"/>
<path d="M374.718 13.156V84.775H359.82V13.156H374.718Z" fill="white"/>
<path d="M323.922 85.7896C320.495 85.7896 317.441 85.1951 314.76 84.0061C312.078 82.7938 309.957 81.0103 308.395 78.6556C306.856 76.2777 306.087 73.3169 306.087 69.7732C306.087 66.7891 306.635 64.2829 307.731 62.2546C308.826 60.2263 310.318 58.5944 312.207 57.3588C314.095 56.1232 316.24 55.1906 318.641 54.5612C321.066 53.9317 323.607 53.4887 326.265 53.2323C329.389 52.9059 331.907 52.6028 333.818 52.3231C335.73 52.02 337.117 51.577 337.98 50.9942C338.842 50.4114 339.274 49.5488 339.274 48.4064V48.1966C339.274 45.9818 338.574 44.2683 337.175 43.056C335.8 41.8437 333.842 41.2375 331.3 41.2375C328.619 41.2375 326.486 41.832 324.901 43.021C323.316 44.1867 322.266 45.6554 321.754 47.4272L307.975 46.3082C308.675 43.0443 310.05 40.2234 312.102 37.8454C314.153 35.4441 316.799 33.6023 320.04 32.3201C323.304 31.0146 327.081 30.3618 331.37 30.3618C334.355 30.3618 337.21 30.7115 339.938 31.4109C342.689 32.1103 345.125 33.1944 347.247 34.6631C349.392 36.1319 351.082 38.0203 352.318 40.3283C353.553 42.613 354.171 45.3523 354.171 48.5463V84.7754H340.043V77.3268H339.623C338.761 79.0053 337.607 80.4857 336.161 81.768C334.716 83.0269 332.979 84.0177 330.951 84.7405C328.922 85.4399 326.579 85.7896 323.922 85.7896ZM328.188 75.5083C330.38 75.5083 332.315 75.077 333.993 74.2144C335.672 73.3285 336.989 72.1395 337.945 70.6475C338.901 69.1554 339.379 67.4652 339.379 65.5768V59.8766C338.912 60.1797 338.271 60.4595 337.455 60.7159C336.663 60.9491 335.765 61.1705 334.762 61.3804C333.76 61.5669 332.758 61.7417 331.755 61.9049C330.753 62.0448 329.843 62.173 329.027 62.2896C327.279 62.546 325.752 62.954 324.446 63.5135C323.141 64.0731 322.127 64.8307 321.404 65.7866C320.681 66.7191 320.32 67.8848 320.32 69.2836C320.32 71.3119 321.054 72.8622 322.523 73.9347C324.015 74.9838 325.903 75.5083 328.188 75.5083Z" fill="white"/>
<path d="M304.809 31.0611V42.2515H272.462V31.0611H304.809ZM279.806 18.192H294.703V68.2694C294.703 69.6449 294.913 70.7173 295.332 71.4866C295.752 72.2327 296.335 72.7572 297.081 73.0603C297.85 73.3634 298.736 73.5149 299.739 73.5149C300.438 73.5149 301.137 73.4566 301.837 73.34C302.536 73.2002 303.073 73.0953 303.446 73.0253L305.789 84.1109C305.043 84.344 303.993 84.6121 302.641 84.9152C301.289 85.2416 299.645 85.4397 297.71 85.5097C294.12 85.6496 290.973 85.1716 288.268 84.0759C285.587 82.9802 283.501 81.2783 282.009 78.9703C280.517 76.6622 279.782 73.748 279.806 70.2277V18.192Z" fill="white"/>
<path d="M247.772 85.8245C242.247 85.8245 237.491 84.7055 233.504 82.4674C229.541 80.206 226.487 77.012 224.342 72.8855C222.197 68.7358 221.125 63.8283 221.125 58.1631C221.125 52.6378 222.197 47.7886 224.342 43.6155C226.487 39.4424 229.506 36.1901 233.399 33.8588C237.316 31.5274 241.908 30.3618 247.177 30.3618C250.721 30.3618 254.02 30.933 257.074 32.0753C260.151 33.1944 262.832 34.8846 265.117 37.146C267.425 39.4074 269.22 42.2516 270.502 45.6787C271.785 49.0825 272.426 53.0691 272.426 57.6385V61.7301H227.069V52.4979H258.403C258.403 50.3531 257.936 48.453 257.004 46.7978C256.071 45.1425 254.778 43.8486 253.122 42.9161C251.49 41.9602 249.59 41.4823 247.422 41.4823C245.161 41.4823 243.156 42.0069 241.407 43.056C239.682 44.0818 238.33 45.4689 237.351 47.2174C236.372 48.9426 235.87 50.866 235.847 52.9875V61.765C235.847 64.4228 236.337 66.7191 237.316 68.6542C238.318 70.5892 239.729 72.0812 241.547 73.1303C243.366 74.1794 245.522 74.704 248.017 74.704C249.672 74.704 251.187 74.4709 252.563 74.0046C253.938 73.5383 255.116 72.8389 256.095 71.9064C257.074 70.9738 257.82 69.8315 258.333 68.4793L272.111 69.3885C271.412 72.699 269.978 75.5899 267.81 78.0611C265.665 80.5091 262.891 82.4208 259.487 83.7963C256.106 85.1484 252.201 85.8245 247.772 85.8245Z" fill="white"/>
<path d="M139.371 13.156H158.045L177.768 61.275H178.608L198.331 13.156H217.005V84.775H202.317V38.1597H201.723L183.189 84.4253H173.187L154.653 37.9848H154.059V84.775H139.371V13.156Z" fill="white"/>
</svg>
