<svg xmlns="http://www.w3.org/2000/svg" fill="none" viewBox="0 0 847 830">
    <g clip-path="url(#a)">
        <path fill="#00DACC"
              d="M849.096 416.136c-4.89-236.594-202.145-424-439.218-415.874C178.219 8.212-4.89 202.17.088 434.046c3.754 171.33 108.276 316.711 255.846 380.752 20.956-26.648 38.42-74.526 47.065-101.086a1201.703 1201.703 0 0 1 27.418-63.604c43.136 15.028 101.029.786 132.639-33.637l1.31-1.398h-.175c-38.421-16.862-91.249-8.125-126.089 18.872a1123.144 1123.144 0 0 1 37.634-71.38c42.35 16.949 100.767 5.417 133.948-27.434l1.31-1.31h-.174c-36.937-18.348-89.154-12.581-125.129 11.795a1014.531 1014.531 0 0 1 41.04-62.993c43.922 13.717 101.727-3.145 132.027-39.229l1.223-1.397h-.175c-35.801-13.892-82.866-5.679-116.31 17.648 1.223-1.573 2.445-3.233 3.668-4.805 8.557-11.096 17.202-21.93 26.108-32.501 51.868-14.678 98.147-67.536 105.482-122.229l.262-2.184h-.174c-53.615 10.746-103.299 63.517-113.254 119.345-8.557 10.135-16.853 20.532-25.061 31.191 13.36-36.433 11.003-80.554-8.557-111.045l-1.135 1.31c-29.514 37.306-34.229 98.115-11.352 138.392-13.447 19.046-26.457 38.791-38.857 59.323 7.772-41.238-5.414-89.116-34.404-116.113h-.087l-.786 1.573c-19.123 43.072-8.907 102.483 22.616 135.945a1104.627 1104.627 0 0 0-35.539 67.099c6.811-42.898-8.558-92.436-39.207-119.345h-.087l-.699 1.66c-17.464 45.169-4.016 106.327 29.864 139.09-7.335 15.901-14.495 32.065-21.306 48.665-1.659-1.66-3.755-2.971-6.2-3.757-8.819-2.621-21.044-7.252-34.491-15.29-8.907-5.329-18.337-9.698-28.204-12.93-38.246-12.581-32.658-31.016-52.654-68.06-1.31-2.447-17.115-18.959-20.52-21.93-.873-.699-10.915-6.64-16.067-17.473-4.715-9.96-7.335-19.134-8.295-28.133-1.31-12.057-6.287-19.92-17.988-24.026-56.321-19.484-31.173-92.698-29.165-102.484 1.66-8.3-5.588-26.385-8.295-36.345-.262-1.223-.524-2.708-.96-4.456-4.105-19.658 5.064-36.258 11.787-43.072 6.811-6.815 30.125-17.736 35.103-24.201 4.802-6.291 8.732-13.455 13.709-19.658 6.549-8.213 26.632-24.201 53.789-38.704 16.416-8.825 19.297-31.715 25.584-38.792 10.653-12.057 26.895-12.057 38.945-22.891 6.025-5.504 14.844-8.212 20.52-13.978 27.942-28.657 65.315-40.277 102.339-47.179 24.973-4.631 52.741 2.533 78.762 6.902 3.842.611 7.509 1.572 11.002 2.621 58.504 2.009 128.971 14.153 154.381 39.053 15.892 15.465 23.664 32.414 27.418 44.034 4.192 13.018 10.042 25.424 17.202 37.044l15.631 25.512c9.954 16.163 13.185 35.559 8.906 53.994-2.445 10.484-3.667 21.492-.611 27.608 4.89 9.611 19.909 25.162 28.903 34.074a90.466 90.466 0 0 0 14.32 11.445c12.05 7.601 34.841 22.192 34.928 23.502 0 1.747 1.921 8.999-8.208 17.736-10.129 8.824-29.077 22.716-29.077 22.716s.96 6.378 3.667 11.532c2.707 5.155 9.256 12.669 7.248 19.571-2.009 6.902-16.067 12.319-12.051 20.007 4.017 7.601 13.884 10.048 11.09 16.95-2.882 6.902-16.765 18.784-15.368 23.939 1.397 5.154 12.661 52.508-13.36 60.721-19.56 6.203-73.349 9.698-98.671 11.095-10.915.612-20.695 6.728-25.934 16.338-3.93 7.165-7.772 17.037-9.693 30.23-4.89 33.549-38.071 110.608-38.071 110.608s-.961 1.922-2.532 5.155c-2.882 6.989-6.986 17.91-6.375 22.279.35 2.883 4.279 8.475 10.042 15.289a17.208 17.208 0 0 0 18.687 5.242c170.273-58.187 291.123-221.216 287.194-410.806"/>
    </g>
    <defs>
        <clipPath id="a">
            <path fill="#fff" d="M0 0h847v830H0z"/>
        </clipPath>
    </defs>
</svg>