<svg xmlns="http://www.w3.org/2000/svg" xml:space="preserve" id="Layer_1" x="0" y="0"
     style="enable-background:new 0 0 2500 2500" version="1.1" viewBox="0 0 2500 2500"><style>.st1{fill:#e1177c}</style>
    <g id="Layer_x0020_1"><g id="_2167087048384"><path d="M0 0h2500v2500H0z" style="fill:none"/><path
            d="M1723 2214c30 0 56 17 56 39s-26 39-56 39H903c-30 0-56-17-56-39s26-39 56-39h820z" class="st1"/><circle
            cx="725" cy="2235" r="56" class="st1"/><circle cx="1218" cy="2028" r="56" class="st1"/><path
            d="M2180 1972c30 0 56 26 56 56s-26 56-56 56h-803c-30 0-56-26-56-56s26-56 56-56h803z" class="st1"/><circle
            cx="164" cy="1821" r="56" class="st1"/><path
            d="M963 1765c30 0 56 26 56 56s-26 56-56 56H302c-30 0-56-26-56-56s26-56 56-56h661zM2444 1765c30 0 56 26 56 56s-26 56-56 56H1131c-30 0-56-26-56-56s26-56 56-56h1313zM2198 1557c30 0 56 26 56 56s-26 56-56 56H587c-30 0-56-26-56-56s26-56 56-56h1611z"
            class="st1"/><circle cx="410" cy="1613" r="56" class="st1"/><path
            d="M1861 1354c30 0 56 26 56 56s-26 56-56 56H250c-30 0-56-26-56-56s26-56 56-56h1611z" class="st1"/><circle
            cx="56" cy="1411" r="56" class="st1"/><circle cx="410" cy="1203" r="56" class="st1"/><path
            d="M2353 1147c30 0 56 26 56 56s-26 56-56 56H600c-30 0-56-26-56-56s26-56 56-56h1753z" class="st1"/><path
            d="M1744 271c285 121 475 419 453 721-510 0-1019 4-1529-4 0-203 69-410 216-553 216-220 574-289 859-164h1z"
            style="fill:#53cbc9"/></g></g></svg>