<svg xmlns="http://www.w3.org/2000/svg" fill="none" viewBox="0 0 31 34"><script/><path fill="#5E12A0" d="M30.616 5.868c-.337-1.301-1.42-2.603-3.369-4.051C25.683.663 24.023 0 22.7 0c-.265 0-.506.025-.746.074-.602.122-1.131.564-1.468 1.227-.409.786-.505 1.842-.24 2.48.096.197.216.442.36.663-1.275.786-1.997 1.007-2.093 1.031 3.32 1.13 6.087 3.487 7.82 6.556l.024-.295c.072-.81.313-1.743.65-2.7.336.098.673.147 1.01.147.89 0 1.66-.369 2.142-1.032.48-.663.673-1.546.457-2.283Z"/><path fill="url(#a)" d="M27.15 8.323c2.19.614 3.08-1.104 2.792-2.258-.313-1.154-1.323-2.333-3.104-3.659-1.78-1.326-3.585-1.866-4.74-1.62-1.155.245-1.492 2.038-1.203 2.725.12.27.385.663.746 1.105-.457.32-.89.565-1.251.786a14.281 14.281 0 0 1 5.582 4.542c.168-.663.409-1.252.625-1.768.169.025.361.074.554.147Z"/><path fill="url(#b)" d="M14.615 32.385c7.429 0 13.45-6.145 13.45-13.725S22.044 4.935 14.615 4.935c-7.428 0-13.45 6.145-13.45 13.725s6.022 13.725 13.45 13.725Z"/><path fill="#A98698" d="M28.835 4.935c-1.828-1.964-3.368-2.48-5.22-2.897-1.444-.344-1.06-1.179.697-1.007C23.47.736 22.676.663 22.1.786c-1.155.245-1.492 2.037-1.204 2.725.12.27.385.663.746 1.105-.65.442-1.203.76-1.66 1.006.217.099.481.221.794.393.818.442 1.709 1.179 1.709 1.179-1.348-1.179-1.06-1.719.793-3.045.578-.417 1.637-.368 2.623.148.987.515 2.142 1.816 2.142 1.816l-1.107 2.161.216.074c.698.196 1.251.147 1.684-.025.506-.319 1.83-1.4 0-3.388Z" opacity=".6"/><path fill="#5E12A0" d="M23.59 3.217c.48.196 1.106.54 1.876 1.055.915.614 1.709 1.302 2.214 1.842-.842 1.13-1.396 2.676-1.732 3.756.168.246.36.491.529.737.168-.614.457-1.522.842-2.43.096.024.217.024.337.024.289 0 .626-.05.89-.27.193-.148.41-.418.385-.909 0-.466-.36-1.056-1.107-1.768-.529-.515-1.25-1.08-1.973-1.596C23.782 2.26 22.34 1.866 21.69 2.53c-.433.442-.385.982-.24 1.375-.77.516-1.42.884-1.853 1.13.288.098.553.22.842.343.77-.417 1.876-1.13 3.152-2.16Zm4.547 3.51a.67.67 0 0 1 .096.32c0 .22-.072.294-.12.343-.096.074-.289.123-.457.123.144-.294.313-.54.481-.785ZM22.194 3.07c.072-.073.265-.123.578-.073-.241.196-.482.368-.722.54-.024-.172 0-.344.144-.467Z"/><path fill="#5E12A0" d="M14.615 4.125C6.747 4.125.371 10.632.371 18.66c0 8.029 6.376 14.535 14.244 14.535 7.868 0 14.244-6.506 14.244-14.535 0-8.028-6.4-14.535-14.244-14.535Zm0 28.26c-7.435 0-13.45-6.138-13.45-13.725S7.18 4.935 14.615 4.935s13.45 6.138 13.45 13.725-6.04 13.725-13.45 13.725Z"/><path fill="url(#c)" d="M14.615 32.385c7.429 0 13.45-6.145 13.45-13.725S22.044 4.935 14.615 4.935c-7.428 0-13.45 6.145-13.45 13.725s6.022 13.725 13.45 13.725Z" opacity=".6"/><path fill="#A98698" d="M14.519 30.715c-7.339-1.203-12.32-8.25-11.116-15.738.529-3.314 2.165-6.138 4.475-8.176-3.369 1.989-5.87 5.45-6.545 9.674C.154 23.963 5.135 31.01 12.45 32.213c4.09.688 8.036-.614 10.947-3.167a13.262 13.262 0 0 1-8.878 1.67Z" opacity=".6"/><path fill="url(#d)" d="M16.757 5.131c-3.393-.564-6.689.221-9.384 1.965l-.096.098c1.035-.638 2.55-1.203 2.55-1.203-3.897 2.308-5.1 4.935-5.1 4.935 1.515-2.996 5.967-5.107 9.455-5.254 3.49-.148 5.775.908 8.566 3.191 2.791 2.308 4.475 7.023 4.307 10.755-.144 3.731-2.07 6.751-2.07 6.751 1.324-1.743 2.118-3.02 2.623-4.32.097-.394.193-.787.241-1.204 1.203-7.464-3.754-14.51-11.092-15.714Z" opacity=".6"/><path fill="url(#e)" d="M27.391 18.537c0 7.194-5.726 13.038-12.776 13.038s-12.8-5.844-12.8-13.038H27.39Z"/><path fill="url(#f)" d="M26.381 18.537c0 7.022-5.438 12.768-12.27 13.038h.504c7.05 0 12.777-5.844 12.777-13.038h-1.01Z" opacity=".6"/><path fill="url(#g)" d="M3.62 18.537H1.814c0 7.194 5.726 13.038 12.776 13.038.313 0 .602 0 .89-.025C8.865 31.06 3.62 25.412 3.62 18.537Z" opacity=".7"/><path fill="url(#h)" d="M27.367 18.66c0-1.498-2.55-2.357-5.943-2.652-2.454-.196-4.932.05-7.771.933-2.455.737-4.668.614-6.28.417-3.585-.417-5.558-.466-5.558 1.302 0 2.553 5.1 5.745 12.752 4.64 3.874-.565 5.87-1.719 8.157-2.504 2.478-.835 4.643-.81 4.643-2.136Z"/><path fill="#fff" d="M18.802 12.473c1.196 0 2.165-.99 2.165-2.21s-.97-2.21-2.165-2.21c-1.196 0-2.166.99-2.166 2.21s.97 2.21 2.166 2.21ZM22.338 14.118a.924.924 0 0 0 .914-.933.924.924 0 0 0-.914-.933.924.924 0 0 0-.914.933c0 .515.409.933.914.933Z"/><path fill="url(#i)" d="M25.611 8.495h-.048c-.144-.025-.24-.172-.217-.344.217-1.13 1.131-2.21 1.18-2.259a.266.266 0 0 1 .384-.024.28.28 0 0 1 .024.393c-.024.024-.866 1.03-1.058 2.013a.26.26 0 0 1-.265.22Z" opacity=".6"/><path fill="#fff" d="M13.727 28.898a.68.68 0 0 0 .673-.687.68.68 0 0 0-.673-.688.68.68 0 0 0-.674.688c0 .38.302.687.674.687Z" opacity=".2"/><g opacity=".4"><path fill="url(#j)" d="M13.34 28.654a.707.707 0 0 1 0-.982c.048-.05.096-.074.144-.123a.498.498 0 0 0-.24.147.707.707 0 0 0 0 .982c.216.221.553.27.818.123a.663.663 0 0 1-.722-.147Z" opacity=".6"/></g><path fill="#fff" d="M13.965 28.014c.08 0 .145-.066.145-.147a.146.146 0 0 0-.145-.148.146.146 0 0 0-.144.148c0 .081.064.147.144.147Z" opacity=".3"/><path fill="#fff" d="M17.24 28.555a.68.68 0 0 0 .673-.688.68.68 0 0 0-.674-.687.68.68 0 0 0-.673.687c0 .38.301.688.673.688Z" opacity=".2"/><g opacity=".4"><path fill="url(#k)" d="M16.853 28.31a.707.707 0 0 1 0-.982c.049-.05.097-.074.145-.123a.498.498 0 0 0-.24.147.707.707 0 0 0 0 .982c.216.221.553.27.817.123a.662.662 0 0 1-.722-.147Z" opacity=".6"/></g><path fill="#fff" d="M17.479 27.67c.08 0 .144-.065.144-.147a.146.146 0 0 0-.144-.147.146.146 0 0 0-.145.147c0 .082.065.148.145.148Z" opacity=".3"/><path fill="#fff" d="M15.506 30.15a.51.51 0 0 0 .505-.515.51.51 0 0 0-.505-.516.51.51 0 0 0-.506.516.51.51 0 0 0 .506.515Z" opacity=".2"/><g opacity=".4"><path fill="url(#l)" d="M15.217 29.955a.542.542 0 0 1 0-.737c.024-.024.072-.049.096-.073-.072.024-.12.073-.168.122a.542.542 0 0 0 0 .737c.168.172.409.197.625.074a.516.516 0 0 1-.553-.123Z" opacity=".6"/></g><path fill="#fff" d="M15.673 29.463a.097.097 0 0 0 .097-.098.097.097 0 0 0-.097-.098.097.097 0 0 0-.096.098c0 .054.043.098.096.098Z" opacity=".3"/><path fill="#fff" d="M18.61 29.782a.51.51 0 0 0 .505-.515.51.51 0 0 0-.505-.516.51.51 0 0 0-.506.516.51.51 0 0 0 .506.515Z" opacity=".2"/><g opacity=".4"><path fill="url(#m)" d="M18.32 29.587a.542.542 0 0 1 0-.737c.025-.024.073-.049.097-.074a.432.432 0 0 0-.168.123.542.542 0 0 0 0 .737c.168.172.409.196.625.073a.516.516 0 0 1-.553-.122Z" opacity=".6"/></g><path fill="#fff" d="M18.778 29.095a.097.097 0 0 0 .097-.098.097.097 0 0 0-.097-.098.097.097 0 0 0-.096.098c0 .054.043.098.096.098Z" opacity=".3"/><path fill="#fff" d="M10.861 28.653c.612 0 1.107-.506 1.107-1.13 0-.623-.495-1.13-1.107-1.13-.61 0-1.106.506-1.106 1.13 0 .624.495 1.13 1.106 1.13Z" opacity=".2"/><g opacity=".4"><path fill="url(#n)" d="M10.236 28.236a1.143 1.143 0 0 1 0-1.596.866.866 0 0 1 .241-.172c-.144.049-.264.147-.385.245a1.143 1.143 0 0 0 0 1.596c.361.369.915.442 1.348.172-.41.172-.89.098-1.204-.245Z" opacity=".6"/></g><path fill="#fff" d="M11.247 27.18c.133 0 .24-.11.24-.246a.243.243 0 0 0-.24-.245c-.133 0-.24.11-.24.245 0 .136.107.245.24.245Z" opacity=".3"/><path fill="#fff" d="M20.751 25.879c.611 0 1.107-.506 1.107-1.13 0-.623-.496-1.13-1.107-1.13s-1.107.506-1.107 1.13c0 .624.496 1.13 1.107 1.13Z" opacity=".2"/><g opacity=".4"><path fill="url(#o)" d="M20.1 25.461a1.143 1.143 0 0 1 0-1.596.863.863 0 0 1 .241-.172c-.144.05-.264.148-.385.246a1.143 1.143 0 0 0 0 1.596c.361.368.915.442 1.348.172a1.065 1.065 0 0 1-1.203-.246Z" opacity=".6"/></g><path fill="#fff" d="M21.135 24.405c.133 0 .24-.11.24-.245a.243.243 0 0 0-.24-.246c-.133 0-.24.11-.24.245 0 .136.107.246.24.246Z" opacity=".3"/><defs><linearGradient id="c" x1="12.458" x2="16.933" y1="32.19" y2="5.135" gradientUnits="userSpaceOnUse"><stop stop-color="#81FFFF"/><stop offset=".62" stop-color="#fff" stop-opacity="0"/></linearGradient><linearGradient id="d" x1="24.094" x2="12.767" y1="9.339" y2="19.524" gradientUnits="userSpaceOnUse"><stop offset=".289" stop-color="#fff"/><stop offset=".78" stop-color="#fff" stop-opacity="0"/></linearGradient><linearGradient id="e" x1="1.826" x2="27.385" y1="25.049" y2="25.049" gradientUnits="userSpaceOnUse"><stop stop-color="#0002E9"/><stop offset=".995" stop-color="#FF00C7"/></linearGradient><linearGradient id="f" x1="28.595" x2="14.418" y1="19.681" y2="32.811" gradientUnits="userSpaceOnUse"><stop offset=".289" stop-color="#fff"/><stop offset=".78" stop-color="#fff" stop-opacity="0"/></linearGradient><linearGradient id="g" x1="1.826" x2="15.5" y1="25.049" y2="25.049" gradientUnits="userSpaceOnUse"><stop stop-color="#000292"/><stop offset=".995" stop-color="#7D00C7"/></linearGradient><linearGradient id="h" x1="1.843" x2="27.368" y1="19.743" y2="19.743" gradientUnits="userSpaceOnUse"><stop stop-color="#000292"/><stop offset=".995" stop-color="#BE00C7"/></linearGradient><linearGradient id="i" x1="26.949" x2="25.061" y1="5.773" y2="8.781" gradientUnits="userSpaceOnUse"><stop offset=".289" stop-color="#fff"/><stop offset=".78" stop-color="#fff" stop-opacity="0"/></linearGradient><linearGradient id="j" x1="13.044" x2="14.062" y1="28.233" y2="28.233" gradientUnits="userSpaceOnUse"><stop offset=".289" stop-color="#fff"/><stop offset=".78" stop-color="#fff" stop-opacity="0"/></linearGradient><linearGradient id="k" x1="16.555" x2="17.573" y1="27.884" y2="27.884" gradientUnits="userSpaceOnUse"><stop offset=".289" stop-color="#fff"/><stop offset=".78" stop-color="#fff" stop-opacity="0"/></linearGradient><linearGradient id="l" x1="14.997" x2="15.761" y1="29.642" y2="29.642" gradientUnits="userSpaceOnUse"><stop offset=".289" stop-color="#fff"/><stop offset=".78" stop-color="#fff" stop-opacity="0"/></linearGradient><linearGradient id="m" x1="18.091" x2="18.855" y1="29.273" y2="29.273" gradientUnits="userSpaceOnUse"><stop offset=".289" stop-color="#fff"/><stop offset=".78" stop-color="#fff" stop-opacity="0"/></linearGradient><linearGradient id="n" x1="9.756" x2="11.419" y1="27.552" y2="27.552" gradientUnits="userSpaceOnUse"><stop offset=".289" stop-color="#fff"/><stop offset=".78" stop-color="#fff" stop-opacity="0"/></linearGradient><linearGradient id="o" x1="19.63" x2="21.292" y1="24.777" y2="24.777" gradientUnits="userSpaceOnUse"><stop offset=".289" stop-color="#fff"/><stop offset=".78" stop-color="#fff" stop-opacity="0"/></linearGradient><radialGradient id="a" cx="0" cy="0" r="1" gradientTransform="matrix(10.7539 0 0 10.9736 29.503 4.518)" gradientUnits="userSpaceOnUse"><stop stop-color="#FFEAFF" stop-opacity=".6"/><stop offset=".681" stop-color="#A087C9"/><stop offset="1" stop-color="#10002F"/></radialGradient><radialGradient id="b" cx="0" cy="0" r="1" gradientTransform="matrix(26.3108 0 0 26.8484 23.52 9.198)" gradientUnits="userSpaceOnUse"><stop stop-color="#FFEAFF" stop-opacity=".6"/><stop offset=".681" stop-color="#A087C9"/><stop offset="1" stop-color="#10002F"/></radialGradient></defs></svg>
