<svg width="32" height="32" viewBox="0 0 32 32" fill="none" xmlns="http://www.w3.org/2000/svg">
<path d="M0 16C0 7.16344 7.16344 0 16 0V0C24.8366 0 32 7.16344 32 16V16C32 24.8366 24.8366 32 16 32V32C7.16344 32 0 24.8366 0 16V16Z" fill="#0040FF"/>
<path d="M16 31.5C7.43959 31.5 0.5 24.5604 0.5 16C0.5 7.43959 7.43959 0.5 16 0.5C24.5604 0.5 31.5 7.43959 31.5 16C31.5 24.5604 24.5604 31.5 16 31.5Z" stroke="white" stroke-opacity="0.1"/>
<path d="M11.6012 13.182C13.1373 13.182 14.3657 14.4346 14.3657 15.9997C14.3657 17.5654 13.1373 18.8175 11.6012 18.8175C10.0651 18.8175 8.83665 17.5654 8.83665 15.9997C8.83665 14.4346 10.0651 13.182 11.6012 13.182ZM11.6012 20.6376C14.1162 20.6376 16.1514 18.563 16.1514 15.9997C16.1514 13.4365 14.1162 11.3624 11.6012 11.3624C9.08618 11.3624 7.05103 13.4365 7.05103 15.9997C7.05103 18.563 9.08618 20.6376 11.6012 20.6376ZM17.9715 11.3624C17.8043 11.3624 17.6683 11.5006 17.6683 11.6717V12.9083C17.6683 13.0789 17.8043 13.2171 17.9715 13.2171H22.8255C22.9928 13.2171 23.1288 13.0789 23.1288 12.9083V11.6717C23.1288 11.5006 22.9928 11.3624 22.8255 11.3624H17.9715ZM23.4321 13.2171C23.2642 13.2171 23.1288 13.3558 23.1288 13.5264V14.7647C23.1288 14.9358 23.2642 15.074 23.4321 15.074H24.6457C24.813 15.074 24.949 14.9358 24.949 14.7647V13.5264C24.949 13.3558 24.813 13.2171 24.6457 13.2171H23.4321ZM17.9715 16.9276C17.8043 16.9276 17.6683 17.0658 17.6683 17.2364V18.4731C17.6683 18.6442 17.8043 18.7824 17.9715 18.7824H19.1852C19.3524 18.7824 19.4884 18.6442 19.4884 18.4731V17.2364C19.4884 17.0658 19.3524 16.9276 19.1852 16.9276H17.9715ZM20.3983 15.3817C20.3983 15.2106 20.5343 15.0724 20.7021 15.0724H21.9152C22.083 15.0724 22.2184 15.2106 22.2184 15.3817V16.6183C22.2184 16.7889 22.083 16.9276 21.9152 16.9276H20.7021C20.5343 16.9276 20.3983 16.7889 20.3983 16.6183V15.3817ZM19.7917 18.7824C19.6244 18.7824 19.4884 18.9211 19.4884 19.0917V20.3283C19.4884 20.4989 19.6244 20.6376 19.7917 20.6376H24.6457C24.813 20.6376 24.949 20.4989 24.949 20.3283V19.0917C24.949 18.9211 24.813 18.7824 24.6457 18.7824H19.7917Z" fill="white"/>
</svg>
