<svg xmlns="http://www.w3.org/2000/svg" width="126" height="24" viewBox="0 0 126 24" fill="none">
    <g id="Playnance">
        <path
            d="M3.96871 0H11.638C12.6034 0 13.4883 0.0983244 14.2927 0.294973C15.1151 0.473744 15.8212 0.777654 16.4112 1.2067C17.0011 1.63575 17.457 2.20782 17.7788 2.92291C18.1184 3.63799 18.2883 4.52291 18.2883 5.57765C18.2883 6.6324 18.0827 7.57989 17.6715 8.42011C17.2782 9.24246 16.733 9.93966 16.0358 10.5117C15.3564 11.0838 14.5698 11.5218 13.676 11.8257C12.7821 12.1296 11.8346 12.2816 10.8335 12.2816H5.63128L4.18324 19.1464H0L3.96871 0ZM6.32849 9.01006H10.619C11.6916 9.01006 12.5318 8.7419 13.1397 8.20559C13.7654 7.6514 14.0782 6.80223 14.0782 5.6581C14.0782 5.17542 13.9888 4.78212 13.8101 4.47821C13.6492 4.15642 13.4257 3.91508 13.1397 3.75419C12.8536 3.57542 12.5318 3.45028 12.1743 3.37877C11.8346 3.30726 11.4771 3.27151 11.1017 3.27151H7.50838L6.32849 9.01006Z"
            fill="white" />
        <path d="M20.916 0H24.7238L20.6478 19.1464H16.8668L20.916 0Z" fill="white" />
        <path
            d="M24.9059 9.49274C25.031 8.61676 25.2992 7.89274 25.7103 7.32067C26.1215 6.73073 26.6221 6.25698 27.212 5.89944C27.802 5.5419 28.4634 5.29162 29.1964 5.1486C29.9293 4.98771 30.6891 4.90726 31.4757 4.90726C32.1014 4.90726 32.7539 4.95196 33.4332 5.04134C34.1126 5.13073 34.7383 5.3095 35.3103 5.57765C35.8824 5.82793 36.3472 6.19441 36.7047 6.67709C37.0802 7.1419 37.2589 7.7676 37.2411 8.55419C37.2411 9.21564 37.1427 9.9933 36.9461 10.8872L35.7126 16.4648C35.6411 16.7151 35.5874 17.0279 35.5517 17.4034C35.5338 17.7609 35.5249 18.0737 35.5249 18.3419C35.5249 18.5743 35.5695 18.8425 35.6589 19.1464H31.8511V17.7788C31.3327 18.3687 30.698 18.8067 29.9472 19.0927C29.1964 19.3609 28.4187 19.495 27.6142 19.495C26.8634 19.495 26.202 19.3966 25.6299 19.2C25.0757 19.0034 24.6109 18.7441 24.2355 18.4223C23.8601 18.0827 23.583 17.6983 23.4042 17.2693C23.2254 16.8223 23.136 16.3575 23.136 15.8749C23.136 14.5341 23.5919 13.4615 24.5036 12.657C25.4332 11.8525 26.7383 11.352 28.4187 11.1553C29.3126 11.048 30.0902 10.9676 30.7517 10.914C31.4131 10.8603 31.9584 10.7799 32.3874 10.6726C32.8344 10.5475 33.1651 10.3777 33.3796 10.1631C33.5941 9.93073 33.7014 9.59106 33.7014 9.14413C33.7014 8.78659 33.6209 8.50056 33.4601 8.28603C33.2992 8.07151 33.0936 7.90168 32.8433 7.77654C32.6109 7.6514 32.3517 7.57095 32.0656 7.5352C31.7975 7.48156 31.5383 7.45475 31.288 7.45475C30.6087 7.45475 30.0008 7.62458 29.4645 7.96425C28.9282 8.28603 28.5975 8.79553 28.4723 9.49274H24.9059ZM32.9506 12.4961C32.4679 12.7821 31.9494 12.9609 31.3952 13.0324C30.8411 13.086 30.2869 13.1307 29.7327 13.1665C29.3751 13.2022 29.0265 13.2648 28.6869 13.3542C28.3472 13.4257 28.0433 13.5419 27.7751 13.7028C27.5249 13.8637 27.3193 14.0872 27.1584 14.3732C26.9975 14.6413 26.917 14.9899 26.917 15.419C26.917 15.9374 27.1226 16.3307 27.5338 16.5989C27.9628 16.8492 28.4545 16.9743 29.0087 16.9743C29.5986 16.9743 30.0902 16.8849 30.4835 16.7061C30.8947 16.5095 31.2344 16.2682 31.5025 15.9821C31.7885 15.6782 32.012 15.3385 32.1729 14.9631C32.3338 14.5877 32.4679 14.2123 32.5751 13.8369L32.9506 12.4961Z"
            fill="white" />
        <path
            d="M43.629 21.0771C43.3073 21.667 42.9765 22.1497 42.6369 22.5251C42.2972 22.9184 41.9218 23.2223 41.5106 23.4369C41.0994 23.6514 40.6257 23.7944 40.0894 23.8659C39.5709 23.9553 38.9542 24 38.2391 24C37.9173 24 37.5866 23.9821 37.2469 23.9464C36.9073 23.9106 36.5676 23.8838 36.2279 23.8659L36.8715 20.7017C37.1218 20.7017 37.381 20.7285 37.6492 20.7821C37.8994 20.8358 38.1497 20.8626 38.4 20.8626C38.8469 20.8626 39.2045 20.7911 39.4726 20.648C39.7408 20.5229 39.9553 20.362 40.1162 20.1654C40.295 19.9866 40.438 19.7899 40.5452 19.5754C40.6704 19.3609 40.7955 19.1732 40.9207 19.0123L38.4536 5.28268H42.3687L43.5754 15.2045H43.629L48.429 5.28268H52.4514L43.629 21.0771Z"
            fill="white" />
        <path
            d="M53.5657 5.28268H57.2126L56.7836 7.21341H56.8372C58.0707 5.67598 59.6886 4.90726 61.6908 4.90726C64.3903 4.90726 65.74 6.14972 65.74 8.63464C65.74 8.77765 65.7221 8.96536 65.6864 9.19777C65.6506 9.41229 65.6059 9.63575 65.5523 9.86816C65.5165 10.1006 65.4719 10.324 65.4182 10.5385C65.3825 10.7352 65.3557 10.8961 65.3378 11.0212L63.6216 19.1464H59.8138L61.5031 11.0212C61.5389 10.8067 61.5836 10.5207 61.6372 10.1631C61.7087 9.80559 61.7445 9.52849 61.7445 9.33184C61.7445 8.92067 61.5478 8.58101 61.1545 8.31285C60.7791 8.04469 60.3679 7.91061 59.921 7.91061C59.349 7.91061 58.8395 8.02682 58.3925 8.25922C57.9635 8.47374 57.5881 8.75978 57.2663 9.11732C56.9624 9.47486 56.7031 9.88603 56.4886 10.3508C56.292 10.8156 56.14 11.2894 56.0327 11.7721L54.4774 19.1464H50.6964L53.5657 5.28268Z"
            fill="white" />
        <path
            d="M68.189 9.49274C68.3142 8.61676 68.5823 7.89274 68.9935 7.32067C69.4047 6.73073 69.9052 6.25698 70.4952 5.89944C71.0851 5.5419 71.7466 5.29162 72.4795 5.1486C73.2125 4.98771 73.9723 4.90726 74.7589 4.90726C75.3846 4.90726 76.0371 4.95196 76.7164 5.04134C77.3957 5.13073 78.0214 5.3095 78.5935 5.57765C79.1656 5.82793 79.6304 6.19441 79.9879 6.67709C80.3633 7.1419 80.5421 7.7676 80.5242 8.55419C80.5242 9.21564 80.4259 9.9933 80.2292 10.8872L78.9957 16.4648C78.9242 16.7151 78.8706 17.0279 78.8348 17.4034C78.817 17.7609 78.808 18.0737 78.808 18.3419C78.808 18.5743 78.8527 18.8425 78.9421 19.1464H75.1343V17.7788C74.6158 18.3687 73.9812 18.8067 73.2304 19.0927C72.4795 19.3609 71.7019 19.495 70.8974 19.495C70.1466 19.495 69.4851 19.3966 68.9131 19.2C68.3589 19.0034 67.8941 18.7441 67.5186 18.4223C67.1432 18.0827 66.8661 17.6983 66.6874 17.2693C66.5086 16.8223 66.4192 16.3575 66.4192 15.8749C66.4192 14.5341 66.8751 13.4615 67.7868 12.657C68.7164 11.8525 70.0214 11.352 71.7019 11.1553C72.5957 11.048 73.3734 10.9676 74.0348 10.914C74.6963 10.8603 75.2415 10.7799 75.6706 10.6726C76.1175 10.5475 76.4482 10.3777 76.6628 10.1631C76.8773 9.93073 76.9846 9.59106 76.9846 9.14413C76.9846 8.78659 76.9041 8.50056 76.7432 8.28603C76.5823 8.07151 76.3767 7.90168 76.1265 7.77654C75.8941 7.6514 75.6348 7.57095 75.3488 7.5352C75.0807 7.48156 74.8214 7.45475 74.5712 7.45475C73.8918 7.45475 73.284 7.62458 72.7477 7.96425C72.2114 8.28603 71.8807 8.79553 71.7555 9.49274H68.189ZM76.2337 12.4961C75.751 12.7821 75.2326 12.9609 74.6784 13.0324C74.1242 13.086 73.57 13.1307 73.0158 13.1665C72.6583 13.2022 72.3097 13.2648 71.97 13.3542C71.6304 13.4257 71.3265 13.5419 71.0583 13.7028C70.808 13.8637 70.6024 14.0872 70.4415 14.3732C70.2806 14.6413 70.2002 14.9899 70.2002 15.419C70.2002 15.9374 70.4058 16.3307 70.817 16.5989C71.246 16.8492 71.7376 16.9743 72.2918 16.9743C72.8818 16.9743 73.3734 16.8849 73.7667 16.7061C74.1779 16.5095 74.5175 16.2682 74.7857 15.9821C75.0717 15.6782 75.2952 15.3385 75.4561 14.9631C75.617 14.5877 75.751 14.2123 75.8583 13.8369L76.2337 12.4961Z"
            fill="white" />
        <path
            d="M83.748 5.28268H87.3949L86.9658 7.21341H87.0195C88.253 5.67598 89.8709 4.90726 91.8731 4.90726C94.5725 4.90726 95.9223 6.14972 95.9223 8.63464C95.9223 8.77765 95.9044 8.96536 95.8686 9.19777C95.8329 9.41229 95.7882 9.63575 95.7346 9.86816C95.6988 10.1006 95.6541 10.324 95.6005 10.5385C95.5647 10.7352 95.5379 10.8961 95.52 11.0212L93.8038 19.1464H89.996L91.6854 11.0212C91.7211 10.8067 91.7658 10.5207 91.8195 10.1631C91.891 9.80559 91.9267 9.52849 91.9267 9.33184C91.9267 8.92067 91.7301 8.58101 91.3368 8.31285C90.9614 8.04469 90.5502 7.91061 90.1033 7.91061C89.5312 7.91061 89.0217 8.02682 88.5748 8.25922C88.1457 8.47374 87.7703 8.75978 87.4485 9.11732C87.1446 9.47486 86.8854 9.88603 86.6709 10.3508C86.4742 10.8156 86.3223 11.2894 86.215 11.7721L84.6597 19.1464H80.8787L83.748 5.28268Z"
            fill="white" />
        <path
            d="M107.274 10.0827C107.274 9.26033 107.06 8.67039 106.631 8.31285C106.219 7.95531 105.585 7.77654 104.727 7.77654C104.012 7.77654 103.404 7.97318 102.903 8.36648C102.403 8.7419 102 9.22458 101.696 9.81453C101.393 10.4045 101.169 11.048 101.026 11.7453C100.901 12.4246 100.838 13.0592 100.838 13.6492C100.838 14.0603 100.883 14.4536 100.972 14.8291C101.062 15.1866 101.214 15.4994 101.428 15.7676C101.643 16.0358 101.911 16.2503 102.233 16.4112C102.572 16.5721 102.984 16.6525 103.466 16.6525C103.895 16.6525 104.271 16.581 104.593 16.438C104.932 16.295 105.227 16.1073 105.477 15.8749C105.746 15.6425 105.96 15.3743 106.121 15.0704C106.3 14.7486 106.443 14.4179 106.55 14.0782H110.358C109.786 15.8123 108.901 17.1531 107.703 18.1006C106.523 19.0302 105.022 19.495 103.198 19.495C101.25 19.495 99.7299 19.0212 98.6395 18.0737C97.5668 17.1084 97.0305 15.6067 97.0305 13.5687C97.0305 12.3888 97.2003 11.2804 97.54 10.2436C97.8976 9.18883 98.407 8.26816 99.0685 7.48156C99.7478 6.67709 100.57 6.0514 101.536 5.60447C102.501 5.13967 103.609 4.90726 104.861 4.90726C105.701 4.90726 106.496 5.00559 107.247 5.20223C107.998 5.39888 108.651 5.70279 109.205 6.11397C109.777 6.52514 110.224 7.06145 110.546 7.72291C110.885 8.38436 111.064 9.17095 111.082 10.0827H107.274Z"
            fill="white" />
        <path
            d="M121.558 10.7263C121.558 10.3687 121.522 10.0201 121.451 9.68045C121.397 9.3229 121.281 9.00112 121.102 8.71508C120.923 8.42905 120.664 8.20559 120.324 8.04469C119.985 7.86592 119.538 7.77654 118.984 7.77654C118.447 7.77654 117.973 7.85698 117.562 8.01788C117.151 8.17877 116.794 8.3933 116.49 8.66145C116.186 8.92961 115.927 9.24246 115.712 9.6C115.515 9.95754 115.346 10.333 115.203 10.7263H121.558ZM114.8 13.1397C114.782 13.2291 114.773 13.3095 114.773 13.381C114.773 13.4525 114.773 13.524 114.773 13.5955V13.9441C114.773 14.7486 115.024 15.4011 115.524 15.9017C116.025 16.4022 116.794 16.6525 117.83 16.6525C118.206 16.6525 118.537 16.5989 118.823 16.4916C119.127 16.3665 119.386 16.2145 119.6 16.0358C119.833 15.857 120.029 15.6514 120.19 15.419C120.369 15.1866 120.53 14.9631 120.673 14.7486H124.481C124.177 15.5352 123.819 16.2235 123.408 16.8134C122.997 17.4034 122.505 17.9039 121.933 18.3151C121.361 18.7084 120.691 19.0034 119.922 19.2C119.171 19.3966 118.295 19.495 117.294 19.495C116.365 19.495 115.515 19.3698 114.747 19.1196C113.996 18.8693 113.352 18.4939 112.816 17.9933C112.28 17.4749 111.859 16.8402 111.556 16.0894C111.27 15.3385 111.127 14.4626 111.127 13.4615C111.127 12.3531 111.305 11.2894 111.663 10.2704C112.02 9.23352 112.521 8.32179 113.165 7.5352C113.826 6.73073 114.63 6.09609 115.578 5.63129C116.525 5.1486 117.589 4.90726 118.769 4.90726C119.734 4.90726 120.61 5.0324 121.397 5.28268C122.201 5.53296 122.881 5.91732 123.435 6.43575C124.007 6.93631 124.445 7.57095 124.749 8.33966C125.071 9.0905 125.232 9.96648 125.232 10.9676C125.232 11.6469 125.16 12.3709 125.017 13.1397H114.8Z"
            fill="white" />
    </g>
</svg>