<svg width="32" height="32" viewBox="0 0 32 32" fill="none" xmlns="http://www.w3.org/2000/svg">
<rect width="32" height="32" rx="16" fill="#E6007A"/>
<path d="M15.9418 10.4854C17.8341 10.4854 19.3681 9.59321 19.3681 8.49268C19.3681 7.39215 17.8341 6.5 15.9418 6.5C14.0496 6.5 12.5156 7.39215 12.5156 8.49268C12.5156 9.59321 14.0496 10.4854 15.9418 10.4854Z" fill="#F8F8F8"/>
<path d="M15.9418 25.4995C17.8341 25.4995 19.3681 24.6074 19.3681 23.5068C19.3681 22.4063 17.8341 21.5142 15.9418 21.5142C14.0496 21.5142 12.5156 22.4063 12.5156 23.5068C12.5156 24.6074 14.0496 25.4995 15.9418 25.4995Z" fill="#F8F8F8"/>
<path d="M11.1667 13.2437C12.1128 11.605 12.1067 9.83022 11.153 9.27957C10.1993 8.72892 8.65918 9.61097 7.71308 11.2497C6.76697 12.8884 6.77312 14.6632 7.72682 15.2138C8.68051 15.7645 10.2206 14.8824 11.1667 13.2437Z" fill="#F8F8F8"/>
<path d="M24.1683 20.7502C25.1145 19.1115 25.1088 17.337 24.1558 16.7867C23.2027 16.2365 21.6631 17.1188 20.717 18.7575C19.7709 20.3962 19.7765 22.1707 20.7296 22.7209C21.6826 23.2712 23.2222 22.3889 24.1683 20.7502Z" fill="#F8F8F8"/>
<path d="M11.153 22.7204C12.1067 22.1698 12.1128 20.395 11.1667 18.7563C10.2206 17.1176 8.68051 16.2355 7.72682 16.7862C6.77312 17.3368 6.76697 19.1116 7.71308 20.7503C8.65918 22.389 10.1993 23.2711 11.153 22.7204Z" fill="#F8F8F8"/>
<path d="M24.1558 15.2138C25.1088 14.6635 25.1145 12.889 24.1683 11.2503C23.2222 9.61162 21.6826 8.72928 20.7296 9.27954C19.7765 9.8298 19.7709 11.6043 20.717 13.243C21.6631 14.8817 23.2027 15.764 24.1558 15.2138Z" fill="#F8F8F8"/>
</svg>
