<svg xmlns="http://www.w3.org/2000/svg" fill="none" viewBox="0 0 44 44">
    <g clip-path="url(#a)">
        <mask id="b" width="44" height="44" x="0" y="0" maskUnits="userSpaceOnUse" style="mask-type:luminance">
            <path fill="#fff"
                  d="M22 43.552c11.903 0 21.552-9.65 21.552-21.552C43.552 10.097 33.902.448 22 .448 10.097.448.448 10.098.448 22c0 11.903 9.649 21.552 21.552 21.552Z"/>
        </mask>
        <g mask="url(#b)">
            <path fill="url(#c)" d="M45.593-1.593H-1.593v47.186h47.186V-1.593Z"/>
        </g>
        <path fill="#fff"
              d="m28.233 26.65 6.098-3.52c.322-.187.522-.533.522-.906v-7.041c0-.373-.2-.72-.522-.907l-6.098-3.52a1.05 1.05 0 0 0-1.046 0l-6.098 3.52a1.05 1.05 0 0 0-.522.907v12.583l-4.276 2.468-4.276-2.468v-4.938l4.276-2.468 2.82 1.628v-3.313l-2.298-1.326a1.049 1.049 0 0 0-1.046 0L9.669 20.87a1.048 1.048 0 0 0-.522.906v7.041c0 .373.2.72.522.907l6.098 3.52c.322.186.723.186 1.046 0l6.098-3.52a1.05 1.05 0 0 0 .522-.906V16.235l.078-.044 4.198-2.424 4.276 2.468v4.938L27.71 23.64l-2.816-1.626v3.312l2.294 1.325c.323.185.723.185 1.046 0v-.001Z"/>
    </g>
    <defs>
        <linearGradient id="c" x1="-10.216" x2="38.495" y1="2.285" y2="32.094" gradientUnits="userSpaceOnUse">
            <stop stop-color="#A229C5"/>
            <stop offset="1" stop-color="#7B3FE4"/>
        </linearGradient>
        <clipPath id="a">
            <path fill="#fff" d="M0 0h44v44H0z"/>
        </clipPath>
    </defs>
</svg>