<svg width="32" height="32" viewBox="0 0 32 32" fill="none" xmlns="http://www.w3.org/2000/svg">
<circle cx="16" cy="16" r="16" fill="#8246FA"/>
<path d="M11.6717 26.36C11.4967 26.36 11.3954 26.2219 11.3954 26.0837V12.3433C11.3586 11.7539 11.4323 9.62656 13.0807 7.9044C13.5965 7.35184 15.0423 6.11779 17.2526 6.08095C19.3892 6.04411 20.8719 7.18607 21.3876 7.66496C21.9402 8.18069 23.2111 9.58972 23.2847 11.8368C23.3492 14.1115 22.0783 15.5942 21.5626 16.1376C20.043 17.6848 18.192 17.8597 17.4644 17.8966C17.3263 17.8966 17.1881 17.7584 17.1881 17.6203C17.1881 17.4453 17.2894 17.344 17.4644 17.344C18.1183 17.344 19.8036 17.1414 21.185 15.76C21.5626 15.3824 22.8059 13.9734 22.769 11.8644C22.7322 9.80154 21.4613 8.45697 21.0469 8.10701C20.6693 7.76627 19.3615 6.69798 17.3999 6.69798C17.3631 6.69798 17.3355 6.69798 17.2986 6.69798C15.3002 6.73481 13.9925 7.86757 13.5136 8.35567C11.994 9.87521 11.9664 11.8 11.9664 12.3525V26.0929C11.948 26.2495 11.8375 26.36 11.6717 26.36Z" fill="white"/>
<path d="M17.2807 14.0286C16.1755 14.0286 15.2822 13.1353 15.2822 12.0302C15.2822 10.925 16.1755 10.0317 17.2807 10.0317C18.3858 10.0317 19.2791 10.925 19.2791 12.0302C19.2791 13.1353 18.3858 14.0286 17.2807 14.0286ZM17.2807 10.5475C16.4887 10.5475 15.8348 11.2013 15.8348 11.9933C15.8348 12.7853 16.4887 13.4392 17.2807 13.4392C18.0727 13.4392 18.7265 12.7853 18.7265 11.9933C18.7265 11.2013 18.0727 10.5475 17.2807 10.5475Z" fill="white"/>
<path d="M13.5326 21.5341C13.3577 21.5341 13.2563 21.3959 13.2563 21.2578V12.3339C13.2563 12.1589 13.3945 12.0576 13.5326 12.0576C13.6708 12.0576 13.8089 12.1958 13.8089 12.3339V21.2578C13.7997 21.3959 13.6708 21.5341 13.5326 21.5341Z" fill="white"/>
<path d="M15.5221 24.3246C15.3472 24.3246 15.2458 24.1865 15.2458 24.0483V19.2963C15.2458 19.1213 15.384 19.02 15.5221 19.02C15.6603 19.02 15.7984 19.1582 15.7984 19.2963V24.0483C15.8352 24.1865 15.6971 24.3246 15.5221 24.3246Z" fill="white"/>
<path d="M9.87638 22.0869C9.7014 22.0869 9.6001 21.9488 9.6001 21.8107V15.7509C9.6001 15.5759 9.73824 15.4746 9.87638 15.4746C10.0145 15.4746 10.1527 15.6128 10.1527 15.7509V21.8107C10.1527 21.9856 10.0514 22.0869 9.87638 22.0869Z" fill="white"/>
<path d="M17.2808 16.0269C15.0429 16.0269 13.2471 14.2034 13.2471 11.9932C13.2471 9.79214 15.0337 7.95947 17.2808 7.95947C19.5279 7.95947 21.3145 9.78293 21.3145 11.9932C21.3145 14.2034 19.491 16.0269 17.2808 16.0269ZM17.2808 8.52125C15.356 8.52125 13.7996 10.0684 13.7996 12.0024C13.7996 13.9364 15.3468 15.4835 17.2808 15.4835C19.2147 15.4835 20.7619 13.9364 20.7619 12.0024C20.7619 10.0684 19.1779 8.52125 17.2808 8.52125Z" fill="white"/>
</svg>
