<svg width="32" height="32" viewBox="0 0 32 32" fill="none" xmlns="http://www.w3.org/2000/svg">
<rect width="32" height="32" rx="16" fill="#F8F8F8"/>
<path d="M6.84795 10.0287C2.34793 15.6985 6.84795 24.7672 11.4709 24.7672L9.90167 17.8115C12.6585 17.2814 19.0416 15.6442 22.5195 13.337C26.8668 10.4529 14.6373 0.214577 6.84795 10.0287Z" fill="url(#paint0_linear_3677_27227)"/>
<path d="M11.8167 7.89113C5.91289 10.0287 6.65698 16.5248 7.90816 19.4866V15.2665L13.7399 12.4249C15.804 13.3933 20.1485 15.2284 21.0137 14.8212C21.8789 14.414 22.4628 13.5912 22.6466 13.2307C21.6499 10.5163 19.1966 5.21913 11.8167 7.89113Z" fill="url(#paint1_linear_3677_27227)"/>
<path d="M7.25118 16.8572C7.0476 19.385 9.25872 21.4025 10.3897 22.0952L12.1711 19.3384C15.345 18.2569 20.7172 15.4831 16.8153 13.0401C11.9378 9.98637 7.50566 13.6975 7.25118 16.8572Z" fill="url(#paint2_linear_3677_27227)"/>
<path d="M10.8556 13.9945C8.3957 15.9219 9.66102 19.6 10.8556 21.3318C11.7675 20.42 14.1045 18.3926 16.1572 17.5783C18.21 16.764 20.5258 15.4365 21.6073 14.3762C20.759 13.231 19.6139 13.9104 17.8749 13.6127C16.3905 13.3586 14.9697 10.7711 10.8556 13.9945Z" fill="url(#paint3_linear_3677_27227)"/>
<path d="M16.8358 17.2393C12.604 18.5623 7.30421 23.8555 11.3009 24.9796C14.6939 25.9339 16.454 20.6535 16.8358 17.2393Z" fill="url(#paint4_linear_3677_27227)"/>
<path d="M14.6155 13.4053C13.4853 13.9519 13.6047 14.6777 13.7885 15.0806C13.9581 15.4411 14.4671 15.526 15.2517 15.2715C16.0364 15.017 16.3757 14.2748 16.3545 13.787C16.3332 13.2993 15.9256 12.7717 14.6155 13.4053Z" fill="#E3E3E3"/>
<path d="M18.2783 14.7791C18.0542 13.6012 17.3166 13.5803 16.9635 13.6976C16.6467 13.8076 16.603 14.461 16.7727 15.2668C16.9377 16.0505 17.4089 16.3059 17.8118 16.1787C18.1873 16.0601 18.4519 15.6909 18.2783 14.7791Z" fill="#E3E3E3"/>
<path d="M26.585 23.4946C28.2932 21.2046 26.4106 17.6803 24.5868 17.735L25.2882 20.4604C24.2069 20.7022 21.7081 21.4236 20.3634 22.375C18.6825 23.5642 23.6282 27.4585 26.585 23.4946Z" fill="url(#paint5_linear_3677_27227)"/>
<path d="M24.6596 24.2294C26.4106 23.6052 26.5836 20.9296 26.055 19.7759L26.1049 21.4408L23.6968 20.1174C22.4131 20.9197 22.5936 20.6389 20.9488 21.7823C20.9488 21.7823 20.4875 22.2436 20.3146 22.4183C20.74 23.4774 22.3529 25.0518 24.6596 24.2294Z" fill="url(#paint6_linear_3677_27227)"/>
<path d="M26.3466 20.8052C26.397 19.8056 25.5008 19.0359 25.0464 18.776L24.3763 19.8846C23.137 20.3489 23.3208 19.6009 24.3763 21.0799C25.9609 23.3002 26.2154 23.4067 26.3466 20.8052Z" fill="#686868"/>
<path d="M26.305 21.1808C26.305 21.1808 26.7062 19.8168 25.0213 18.7537C24.6723 19.1242 24.5578 19.6117 23.7576 19.9572C24.5797 21.0003 25.5227 20.1979 26.305 21.1808Z" fill="#C1C1C1"/>
<path d="M22.5595 20.769C24.0336 20.2224 26.2414 18.0461 24.6514 17.6499C23.3016 17.3136 22.6697 19.4176 22.5595 20.769Z" fill="url(#paint7_linear_3677_27227)"/>
<path d="M23.4664 20.6452C23.1012 20.9802 23.2288 21.241 23.344 21.3724C23.4491 21.4894 23.6511 21.4637 23.9188 21.2784C24.1865 21.0931 24.2305 20.7741 24.1671 20.5921C24.1037 20.4101 23.8897 20.257 23.4664 20.6452Z" fill="#E3E3E3"/>
<path d="M24.9635 21.156C24.745 20.7362 24.4813 20.6979 24.3611 20.7823C24.2539 20.8599 24.3115 21.1118 24.4672 21.3972C24.6185 21.6747 24.8256 21.7177 24.9635 21.6239C25.092 21.5364 25.1326 21.4809 24.9635 21.156Z" fill="#E3E3E3"/>
<path d="M20.949 21.7822C20.949 21.7822 20.4007 22.2905 20.3071 22.4242C21.1416 24.3017 22.7543 24.5437 23.4563 24.43C22.7342 24.41 22.0923 23.8884 21.7514 23.4672C21.1518 22.7265 21.3301 22.3439 20.949 21.7822Z" fill="url(#paint8_linear_3677_27227)"/>
<defs>
<linearGradient id="paint0_linear_3677_27227" x1="8.45964" y1="24.7671" x2="23.4738" y2="8.39583" gradientUnits="userSpaceOnUse">
<stop stop-color="#B7B7B7"/>
<stop offset="1" stop-color="#979797"/>
</linearGradient>
<linearGradient id="paint1_linear_3677_27227" x1="21.3318" y1="7.2081" x2="14.7952" y2="19.4866" gradientUnits="userSpaceOnUse">
<stop stop-color="#BFBFBF"/>
<stop offset="0.0635417" stop-color="#B6B6B6"/>
<stop offset="1" stop-color="#BFBFBF"/>
</linearGradient>
<linearGradient id="paint2_linear_3677_27227" x1="10.3897" y1="22.4557" x2="14.8643" y2="11.9162" gradientUnits="userSpaceOnUse">
<stop stop-color="#656565"/>
<stop offset="1" stop-color="#303030"/>
</linearGradient>
<linearGradient id="paint3_linear_3677_27227" x1="10.9405" y1="21.3319" x2="21.6073" y2="14.2701" gradientUnits="userSpaceOnUse">
<stop stop-color="#070707"/>
<stop offset="0.448958" stop-color="#070707"/>
<stop offset="1" stop-color="#727272"/>
</linearGradient>
<linearGradient id="paint4_linear_3677_27227" x1="10.7919" y1="21.0776" x2="15.1817" y2="21.9895" gradientUnits="userSpaceOnUse">
<stop stop-color="#9D9D9D"/>
<stop offset="0.933333" stop-color="#BDBDBD"/>
</linearGradient>
<linearGradient id="paint5_linear_3677_27227" x1="25.7748" y1="17.6993" x2="20.0454" y2="24.3355" gradientUnits="userSpaceOnUse">
<stop stop-color="#8F8F8F"/>
<stop offset="1" stop-color="#979797"/>
</linearGradient>
<linearGradient id="paint6_linear_3677_27227" x1="23.4652" y1="24.7214" x2="24.5192" y2="21.7421" gradientUnits="userSpaceOnUse">
<stop stop-color="#080808"/>
<stop offset="1" stop-color="#262626"/>
</linearGradient>
<linearGradient id="paint7_linear_3677_27227" x1="24.8984" y1="19.1833" x2="23.1558" y2="18.8755" gradientUnits="userSpaceOnUse">
<stop stop-color="#939393"/>
<stop offset="0.933333" stop-color="#9C9C9C"/>
</linearGradient>
<linearGradient id="paint8_linear_3677_27227" x1="20.6481" y1="22.0029" x2="22.0522" y2="24.4701" gradientUnits="userSpaceOnUse">
<stop offset="0.0001" stop-color="#6A6A6A"/>
<stop offset="1" stop-color="#2C2C2C"/>
</linearGradient>
</defs>
</svg>
