<svg xmlns="http://www.w3.org/2000/svg" style="isolation:isolate" viewBox="0 0 64 64"><script/><circle cx="32" cy="32" r="32" fill="#FFF"/><path fill-rule="evenodd" d="M24.293 10.222a4.696 4.696 0 0 0-3.444 1.501 12.115 12.115 0 0 1-8.887 3.873H9.167A28.185 28.185 0 0 1 32 4a28.19 28.19 0 0 1 22.834 11.596H52.42a12.68 12.68 0 0 1-9.056-3.799 5.255 5.255 0 0 0-3.755-1.575H24.293Zm33.845 11.313h-8.564a5.254 5.254 0 0 1-3.754-1.575 12.683 12.683 0 0 0-9.056-3.798h-9.626a12.117 12.117 0 0 0-8.886 3.872 4.696 4.696 0 0 1-3.444 1.501H5.861A27.713 27.713 0 0 0 4 28.889h10.808c3.376 0 6.599-1.404 8.886-3.873a4.696 4.696 0 0 1 3.444-1.501h9.626c1.414 0 2.768.568 3.755 1.575a12.676 12.676 0 0 0 9.055 3.799H60a27.676 27.676 0 0 0-1.862-7.354ZM60 35.111H49.574c-3.41 0-6.676 1.37-9.055 3.799a5.258 5.258 0 0 1-3.755 1.575h-9.626a4.696 4.696 0 0 1-3.444-1.501 12.113 12.113 0 0 0-8.886-3.873H4c.286 2.572.923 5.04 1.861 7.354h8.947c1.308 0 2.557.544 3.444 1.501a12.117 12.117 0 0 0 8.886 3.872h9.626c3.41 0 6.676-1.37 9.056-3.798a5.254 5.254 0 0 1 3.754-1.575h8.564A27.676 27.676 0 0 0 60 35.111Zm-5.166 13.293H52.42a12.68 12.68 0 0 0-9.056 3.799 5.255 5.255 0 0 1-3.755 1.575H24.293a4.693 4.693 0 0 1-3.444-1.501 12.115 12.115 0 0 0-8.887-3.873H9.167A28.185 28.185 0 0 0 32 60a28.19 28.19 0 0 0 22.834-11.596ZM32 37.374c2.986 0 5.407-2.406 5.407-5.374 0-2.968-2.421-5.374-5.407-5.374S26.593 29.032 26.593 32c0 2.968 2.421 5.374 5.407 5.374Z"/></svg>
