<svg xmlns="http://www.w3.org/2000/svg" fill="none" viewBox="0 0 26.551 29.663"><g fill="#FAF9F5" clip-path="url(#a)"><path d="M13.18 8.465c2.214 0 4.01-1.782 4.01-3.98S15.394.505 13.18.505c-2.216 0-4.012 1.782-4.012 3.98s1.796 3.98 4.011 3.98Z"/><path d="M24.326 16.786c-1.918-1.096-4.374-.447-5.479 1.456a3.964 3.964 0 0 0-.537 2.077c.043 1.76-1.555 2.668-3.067 1.76-.058-.03-.116-.073-.189-.102-1.526-.85-1.526-2.653 0-3.49 1.25-.677 2.108-1.99 2.108-3.504v-.086c-.044-1.76 1.555-2.668 3.066-1.76a4.018 4.018 0 0 0 4.084.044 3.965 3.965 0 0 0 1.468-5.437c-1.105-1.904-3.56-2.553-5.48-1.457a3.987 3.987 0 0 0-2.005 3.534c.044 1.759-1.555 2.668-3.052 1.759a3.974 3.974 0 0 0-2.093-.591 4.1 4.1 0 0 0-2.092.576c-1.512.895-3.096-.014-3.052-1.759A3.97 3.97 0 0 0 6 6.273 4.034 4.034 0 0 0 .521 7.744c-1.104 1.904-.436 4.34 1.483 5.437a4.052 4.052 0 0 0 4.083-.044c1.512-.908 3.096 0 3.052 1.76v.086c0 1.514.843 2.827 2.108 3.505 1.526.85 1.526 2.653 0 3.49-.059.028-.117.071-.175.1-1.511.895-3.095-.014-3.052-1.759a4.048 4.048 0 0 0-.537-2.091c-1.105-1.904-3.56-2.553-5.48-1.457C.086 17.896-.568 20.334.537 22.238c1.104 1.904 3.56 2.553 5.479 1.457.029-.015.043-.03.072-.044 1.512-.908 3.096 0 3.052 1.76v.1c0 2.192 1.803 3.98 4.011 3.98 2.21 0 4.012-1.787 4.012-3.98v-.086c-.044-1.76 1.555-2.668 3.066-1.76.03.015.058.03.087.058 1.919 1.096 4.375.447 5.48-1.456 1.104-1.947.45-4.384-1.469-5.48Z"/></g><defs><clipPath id="a"><path fill="#fff" d="M0 0h178v32H0z"/></clipPath></defs></svg>
