<svg xmlns="http://www.w3.org/2000/svg" fill="none" viewBox="0 0 159 159"><path fill="#0C0C4F" stroke="url(#a)" stroke-width="4" d="M2.162 79.26c0 42.526 34.473 76.999 76.999 76.999 42.526 0 77.001-34.473 77.001-76.998 0-42.526-34.475-77-77.001-77s-76.999 34.474-76.999 77Z"/><path fill="#FAFAFA" fill-rule="evenodd" d="m44.316 60.65 1.95-6.026a3.935 3.935 0 0 1 2.594-2.554l6.054-1.862c.838-.256.845-1.438.014-1.708L48.9 46.55a3.945 3.945 0 0 1-2.555-2.593l-1.86-6.055c-.256-.836-1.438-.845-1.708-.011l-1.95 6.025a3.945 3.945 0 0 1-2.593 2.555l-6.054 1.86c-.838.257-.848 1.437-.014 1.707l6.027 1.95a3.948 3.948 0 0 1 2.555 2.596l1.86 6.052c.255.838 1.438.847 1.707.013Z" clip-rule="evenodd"/><path fill="url(#b)" fill-rule="evenodd" d="M140.01 57.143c-2.495-2.791-6.391-4.363-10.178-5.007-3.817-.619-7.82-.562-11.588.108-7.625 1.29-14.552 4.447-20.594 8.342-3.137 1.911-5.813 4.123-8.585 6.376-1.335 1.139-2.553 2.352-3.821 3.548l-3.466 3.448c-3.765 3.936-7.476 7.52-11.067 10.492-3.605 2.957-6.976 5.203-10.298 6.772-3.32 1.577-6.871 2.504-11.501 2.653-4.59.162-10.02-.667-15.827-2.034-5.839-1.361-11.97-3.301-18.823-4.97 2.391 6.632 5.991 12.493 10.614 17.851 4.676 5.265 10.516 10.064 18.018 13.22 7.393 3.226 16.684 4.384 25.371 2.637 8.71-1.677 16.354-5.708 22.533-10.369 6.195-4.709 11.206-10.073 15.431-15.65a105.982 105.982 0 0 0 2.627-3.608l2.333-3.455c1.621-2.138 3.097-4.571 4.702-6.689 3.146-4.435 6.247-8.865 9.851-12.947 1.814-2.07 3.727-4.05 5.985-5.953 1.127-.928 2.343-1.837 3.691-2.656a17.495 17.495 0 0 1 4.592-2.11Z" clip-rule="evenodd"/><path fill="#FAFAFA" fill-rule="evenodd" d="M140.01 57.142c-2.681-6.765-7.666-12.46-14.356-16.664-6.651-4.156-15.887-6.277-25.039-4.47a41.002 41.002 0 0 0-12.747 4.8c-3.827 2.234-7.256 4.922-10.225 7.806-1.482 1.447-2.827 2.956-4.163 4.474l-3.464 4.416-5.35 7.109c-6.82 9.146-14.165 19.865-26.218 23.041-11.832 3.118-16.964.357-24.186-.784 1.321 3.41 2.957 6.72 5.174 9.633 2.176 2.971 4.747 5.762 7.942 8.154 1.615 1.149 3.32 2.283 5.214 3.245a36.062 36.062 0 0 0 6.087 2.363c4.316 1.183 9.175 1.597 13.88.961 4.707-.628 9.206-2.12 13.139-4.101 3.961-1.962 7.412-4.352 10.494-6.874 6.125-5.087 10.89-10.708 14.915-16.39a116.167 116.167 0 0 0 5.561-8.63l2-3.446a84.672 84.672 0 0 1 1.859-2.965c2.534-3.793 5.013-6.834 8.024-9.117 2.969-2.342 7.104-4.072 12.629-4.474 5.502-.407 11.854.345 18.83 1.913Z" clip-rule="evenodd"/><defs><linearGradient id="a" x1="149.662" x2="6.27" y1="40.762" y2="67.369" gradientUnits="userSpaceOnUse"><stop stop-color="#EC796B"/><stop offset="1" stop-color="#E175B1"/></linearGradient><linearGradient id="b" x1="139.338" x2="28.662" y1="54.769" y2="116.264" gradientUnits="userSpaceOnUse"><stop stop-color="#EC796B"/><stop offset="1" stop-color="#E175B1"/></linearGradient></defs></svg>
