<svg xmlns="http://www.w3.org/2000/svg" width="51" height="51" fill="none">
    <path fill="url(#a)"
        d="m48.856 30.902-.064.067a7.25 7.25 0 0 1-.091.093L31.038 48.696a7.888 7.888 0 0 1-11.142 0l-4.877-4.87a.882.882 0 0 1 .36-1.468c5.228-1.613 9.476-3.476 12.743-5.588 7.783-5.03 14.694-6.986 20.734-5.868Zm-3.703-14.506c6.522 2.055 5.76 6.852 5.847 8.743-7.142-3.745-15.733-2.372-25.775 4.118-7.484 4.837-13.753 6.831-18.808 5.982C1.363 34.392.226 28.22 0 26.578c5.554 2.808 12.997 1.196 22.328-4.835 8.696-5.62 16.304-7.402 22.826-5.347ZM31.038 2.304l4.583 4.575a.883.883 0 0 1-.448 1.49c-6.635 1.337-11.941 3.29-15.918 5.861-6.816 4.405-12.624 6.453-17.425 6.142L19.897 2.303a7.888 7.888 0 0 1 11.142 0Z" />
    <defs>
        <linearGradient id="a" x1="25.5" x2="25" y1="0" y2="86" gradientUnits="userSpaceOnUse">
            <stop stop-color="#3068EF" />
            <stop offset="1" stop-color="#1322AC" />
        </linearGradient>
    </defs>
</svg>