<svg width="32" height="32" viewBox="0 0 32 32" fill="none" xmlns="http://www.w3.org/2000/svg">
<g clip-path="url(#clip0_3677_27264)">
<path d="M0 16C0 7.16344 7.16344 0 16 0C24.8366 0 32 7.16344 32 16C32 24.8366 24.8366 32 16 32C7.16344 32 0 24.8366 0 16Z" fill="#7D00FF"/>
<path d="M25.0667 10.7334H19.0231V12.7478H25.0667V10.7334ZM14.9928 12.7478H12.9782V14.7635H14.9928V12.7478ZM12.9782 22.8223H14.9928V16.7779H12.9782V22.8223ZM17.0073 12.7478V14.7635H19.0231V12.7478H17.0073ZM17.0073 22.8223H19.0231V16.7779H17.0073V22.8223ZM17.0073 10.7334H14.9928V12.7478H17.0073V10.7334ZM6.93335 10.7334V12.7478H12.9782V10.7334H6.93335ZM25.0667 16.7779V14.7635H19.0231V16.7779H25.0667ZM14.9928 14.7635V16.7779H17.0073V14.7635H14.9928ZM6.93335 14.7635V16.7779H12.9782V14.7635H6.93335Z" fill="white"/>
</g>
<defs>
<clipPath id="clip0_3677_27264">
<rect width="32" height="32" fill="white"/>
</clipPath>
</defs>
</svg>
