<svg width="32" height="32" viewBox="0 0 32 32" fill="none" xmlns="http://www.w3.org/2000/svg">
<rect width="32" height="32" rx="16" fill="white"/>
<path fill-rule="evenodd" clip-rule="evenodd" d="M12.6675 20.8236C9.44592 19.4316 7.19141 16.2255 7.19141 12.4928V10.1292C7.19607 10.1283 7.20072 10.1274 7.20538 10.1264C8.65289 9.83024 11.5688 9.59807 13.9861 12.1084C19.3744 17.7039 20.3422 15.7484 22.0549 12.288C22.0895 12.218 22.1244 12.1474 22.1597 12.0763C23.0867 10.2069 24.196 9.88423 25.0809 10.033C25.1696 10.0479 25.2538 10.0705 25.3335 10.1002V12.4928C25.3335 16.2255 23.0789 19.4316 19.8574 20.8236H12.6675Z" fill="url(#paint0_linear_3677_27412)"/>
<path fill-rule="evenodd" clip-rule="evenodd" d="M12.6675 20.8236C9.44592 19.4316 7.19141 16.2255 7.19141 12.4928V10.1292C7.19607 10.1283 7.20072 10.1274 7.20538 10.1264C8.65289 9.83024 11.5688 9.59807 13.9861 12.1084C19.3744 17.7039 20.3422 15.7484 22.0549 12.288C22.0895 12.218 22.1244 12.1474 22.1597 12.0763C23.0867 10.2069 24.196 9.88423 25.0809 10.033C25.1696 10.0479 25.2538 10.0705 25.3335 10.1002V12.4928C25.3335 16.2255 23.0789 19.4316 19.8574 20.8236H12.6675Z" fill="url(#paint1_linear_3677_27412)" fill-opacity="0.4"/>
<path fill-rule="evenodd" clip-rule="evenodd" d="M12.6673 24.2212C9.44584 22.8291 7.19141 19.623 7.19141 15.8905V12.6343C7.2764 12.6249 7.36115 12.6123 7.44569 12.5992C8.79841 12.3895 11.5242 12.8197 14.2426 15.1822C19.1146 19.4164 20.2365 19.3523 22.1597 15.4739C23.0708 13.6365 24.2254 12.9887 25.1576 12.8702C25.218 12.8626 25.2766 12.8593 25.3335 12.8603V15.8905C25.3335 19.623 23.079 22.8291 19.8575 24.2212H12.6673Z" fill="url(#paint2_linear_3677_27412)"/>
<path fill-rule="evenodd" clip-rule="evenodd" d="M12.6673 24.2212C9.44584 22.8291 7.19141 19.623 7.19141 15.8905V12.6343C7.2764 12.6249 7.36115 12.6123 7.44569 12.5992C8.79841 12.3895 11.5242 12.8197 14.2426 15.1822C19.1146 19.4164 20.2365 19.3523 22.1597 15.4739C23.0708 13.6365 24.2254 12.9887 25.1576 12.8702C25.218 12.8626 25.2766 12.8593 25.3335 12.8603V15.8905C25.3335 19.623 23.079 22.8291 19.8575 24.2212H12.6673Z" fill="url(#paint3_linear_3677_27412)" fill-opacity="0.4"/>
<path fill-rule="evenodd" clip-rule="evenodd" d="M25.3335 15.9108V16.9801C25.3335 21.9899 21.2722 26.0512 16.2624 26.0512C11.2526 26.0512 7.19141 21.9899 7.19141 16.9801V15.6468C7.27637 15.6372 7.36103 15.6241 7.44534 15.6095C8.82203 15.3724 11.7426 15.5987 14.2426 18.1948C17.5761 21.6566 20.7173 22.4258 22.6405 18.5474C23.4881 16.838 24.4006 16.1398 25.1636 15.9414C25.2218 15.9262 25.2784 15.9162 25.3335 15.9108Z" fill="url(#paint4_linear_3677_27412)"/>
<defs>
<linearGradient id="paint0_linear_3677_27412" x1="7.19141" y1="10.724" x2="25.333" y2="10.4827" gradientUnits="userSpaceOnUse">
<stop offset="0.25625" stop-color="#E2B1FF"/>
<stop offset="0.62987" stop-color="#84D4F2"/>
<stop offset="1" stop-color="#4DFFE5"/>
</linearGradient>
<linearGradient id="paint1_linear_3677_27412" x1="16.2624" y1="9.94922" x2="14.1929" y2="18.1611" gradientUnits="userSpaceOnUse">
<stop offset="0.0739584" stop-color="#BF73DA" stop-opacity="0.18"/>
<stop offset="1" stop-color="#250531"/>
</linearGradient>
<linearGradient id="paint2_linear_3677_27412" x1="7.19141" y1="13.3837" x2="25.3334" y2="13.1588" gradientUnits="userSpaceOnUse">
<stop offset="0.25625" stop-color="#E2B1FF"/>
<stop offset="0.62987" stop-color="#84D4F2"/>
<stop offset="1" stop-color="#4DFFE5"/>
</linearGradient>
<linearGradient id="paint3_linear_3677_27412" x1="16.2624" y1="12.5522" x2="13.9008" y2="21.2851" gradientUnits="userSpaceOnUse">
<stop offset="0.0739584" stop-color="#BF73DA" stop-opacity="0.18"/>
<stop offset="1" stop-color="#250531"/>
</linearGradient>
<linearGradient id="paint4_linear_3677_27412" x1="7.19141" y1="16.371" x2="25.3335" y2="16.1466" gradientUnits="userSpaceOnUse">
<stop offset="0.25625" stop-color="#E2B1FF"/>
<stop offset="0.62987" stop-color="#84D4F2"/>
<stop offset="1" stop-color="#4DFFE5"/>
</linearGradient>
</defs>
</svg>
