<svg xmlns="http://www.w3.org/2000/svg" fill="none" viewBox="0 0 100 66"><path fill="white" d="M19.648 24.418 13.263.265h-4.51l10.895 41.21v15.727L4.596.266H.086l17.307 65.466h6.764V.266h-4.509v24.151ZM99.916 65.732 82.609.266h-6.765V65.73h4.51l11.903-11.91 3.149 11.91h4.51v.001Zm-11.66-27.05-7.9 7.9V8.796l7.9 29.887Zm-7.902 20.667v-6.39l9.234-9.234 1.337 5.053L80.354 59.35ZM33.658.266h-4.51V65.73h4.51l11.904-11.91 3.149 11.91h4.51L35.912.266h-2.254Zm7.901 38.416-7.9 7.9V8.796l7.9 29.887Zm-7.9 20.667v-6.39l9.234-9.234 1.336 5.053L33.66 59.35ZM71.943 40.715 61.249.265h-6.765v65.466h4.51V53.59l4.143-4.143 4.305 16.283 4.5-.033-5.238-19.817 1.657-1.657 3.582-3.509Zm-12.949 6.499V8.794l8.033 30.387-8.033 8.033Z"/></svg>
